<svg width="300" height="220" viewBox="0 0 300 220" fill="none" xmlns="http://www.w3.org/2000/svg">
<path fill-rule="evenodd" clip-rule="evenodd" d="M167.563 122.867C170.99 127.362 176.327 123.899 179.752 125.923C181.479 126.942 181.209 128.896 182.624 129.909C185.308 131.828 188.806 132.399 191.31 134.473C193.166 136.011 192.916 138.433 195.357 138.943C198.263 139.552 199.674 138.585 202.199 138.566C204.775 138.545 207.467 138.965 210.052 139.076C210.803 139.107 214.008 140.452 214.563 140.025C216.888 138.239 215.258 133.375 215.25 130.956C215.249 130.492 215.472 128.382 216.394 128.657C217.629 129.028 218.498 133.051 219.191 134.13C220.156 135.628 220.648 134.475 222.277 134.914C223.391 135.214 223.604 137.275 224.764 137.775C224.898 137.833 225.023 136.764 225.028 136.694C225.092 135.885 225.166 135.081 225.631 134.389C226.633 132.897 228.305 133.064 229.47 134.34C230.091 135.023 230.015 136.036 230.302 136.867C230.5 137.445 230.801 137.971 231.021 138.536C232.402 142.107 228.878 140.992 226.975 142.16C225.922 142.806 224.235 145.181 223.421 146.217C222.376 147.545 224.33 148.658 224.218 149.932C224.182 150.324 222.61 151.109 222.356 151.665C221.628 153.268 222.025 155.156 221.118 156.784C219.605 159.5 216.142 160.86 216.577 164.438C216.877 166.91 218.705 166.836 220.212 168.275C221.317 169.335 222.174 170.877 223.704 171.384C225.228 171.887 227.009 171.31 228.604 171.77C230.595 172.345 232.159 173.739 234.107 174.388C235.736 174.925 237.514 174.897 239.103 175.527C243.158 177.137 242.734 180.571 245.226 183.426C246.516 184.902 248.605 185.572 249.846 183.759C252.201 180.314 246.74 178.142 245.885 175.534C244.947 172.673 250.386 171.384 249.07 168.261C248.229 166.262 246.404 164.877 245.411 162.968C244.457 161.132 244.796 159.065 244.048 157.174C243.46 155.687 242.111 153.243 243.997 152.019C246.733 150.249 252.956 151.85 255.427 153.614C256.158 154.137 257.586 157.364 258.578 157.099C260.984 156.448 260.759 155.437 260.779 153.259C260.782 152.989 261.258 150.393 261.603 150.509C264.148 151.38 267.331 153.243 269.44 154.952C270.779 156.037 271.66 157.458 273.272 158.203C274.515 158.778 275.824 158.329 277.107 158.607C278.442 158.898 279.473 159.825 280.678 160.396C283.091 161.549 286.345 161.846 287.353 164.744C287.966 166.508 286.841 167.877 285.956 169.336C284.574 171.616 284.176 173.643 281.604 175.049C279.239 176.343 275.629 175.787 274.134 178.515C272.981 180.62 272.697 182.894 271.325 185.292C271.203 185.506 270.598 187.053 270.885 187.211C271.23 187.399 272.755 186.503 273.042 186.33C274.737 185.313 276.84 182.754 279.053 182.893C279.968 182.95 279.035 184.967 279.319 185.659C279.415 185.894 279.973 185.978 280.13 186.139C280.863 186.89 281.422 189.139 281.857 190.155C281.96 190.393 282.372 191.156 282.199 191.419C281.442 192.574 280.757 194.049 279.79 195.031C279.75 195.073 279.386 195.445 279.34 195.414C278.153 194.66 276.306 189.154 272.893 191.95C270.457 193.949 271.109 198.074 268.416 200.179C265.966 202.091 262.484 199.842 260.413 202.385C259.402 203.63 259.888 205.355 259.133 206.708C258.286 208.228 256.463 208.71 255.112 209.634C253.315 210.866 253.117 212.655 250.652 212.609C248.703 212.572 249.704 211.636 250.469 210.095C250.865 209.297 252.841 203.753 252.272 202.99C250.925 201.18 249.046 200.355 246.853 201.127C245.913 201.461 244.153 202.61 243.062 202.193C239.782 200.936 236.778 198.287 233.29 197.601C229.957 196.943 227.096 199.761 223.667 199.598C220.349 199.437 217.422 197.04 214.1 197.083C212.034 197.114 210.002 197.614 207.937 197.633C202.63 197.679 197.306 197.284 192.025 196.802C188.207 196.452 184.565 195 180.759 194.496C174.699 193.69 168.47 193.736 163.135 190.189C161.293 188.966 161.122 186.5 160.333 184.584C159.61 182.826 157.944 181.704 157.195 180.02C156.842 179.226 157.353 177.904 157.44 177.066C157.647 175.092 157.642 173.093 157.82 171.112C157.932 169.87 156.632 168.748 156.884 167.558C157.197 166.076 158.941 165.287 159.061 163.675C159.159 162.34 157.885 160.492 157.373 159.29C156.23 156.605 156.313 153.215 154.719 150.777C154.042 149.74 152.229 150.104 151.727 149.041C151.547 148.661 152.013 147.731 152.009 147.305C151.975 143.792 152.634 144.02 154.607 141.156C158.822 135.038 162.402 128.29 167.563 122.867ZM289.613 186.8C290.182 186.797 290.47 187.112 290.948 187.331C291.389 187.535 291.838 187.64 292.322 187.683C292.9 187.733 294.052 187.621 294.17 188.462C294.425 190.279 291.825 190.684 290.803 191.586C290.31 192.018 290.281 192.918 289.902 193.465C289.653 193.826 289.215 194.03 288.887 194.302C288.328 194.768 287.776 195.482 287.486 196.152C287.08 197.091 286.992 199.164 285.496 198.942C285.32 198.918 285.172 198.856 285.015 198.776C284.802 198.665 283.624 197.824 283.449 197.66C283.326 196.452 283.371 195.127 284.145 194.126C284.438 193.746 284.88 193.529 285.14 193.109C285.672 192.253 285.948 191.218 286.408 190.319C286.538 190.066 286.785 189.896 286.945 189.664C287.244 189.234 287.229 188.675 287.467 188.221C287.675 187.819 288.092 187.535 288.453 187.291C288.73 187.105 289.24 186.8 289.613 186.8ZM289.835 168.668C290.905 169.91 293.568 171.214 295.285 171.152C295.927 171.127 296.514 170.831 297.128 170.685C298.017 170.472 299.338 170.769 299.901 171.514C300.152 171.844 299.857 172.617 299.728 172.923C299.513 173.433 299.046 173.776 298.852 174.289C298.47 175.299 298.669 176.538 297.55 177.143C296.423 177.755 296.094 176.307 295.078 176.646C294.592 176.81 294.4 177.332 293.933 177.496C293.578 177.616 293.1 177.468 292.743 177.453C292.489 177.438 292.245 177.697 292.074 177.839C291.397 178.41 290.956 179.878 289.898 179.804C289.079 179.745 288.786 178.951 288.68 178.253C288.515 177.171 289.145 176.192 289.177 175.129C289.201 174.335 289.105 173.538 288.974 172.753C288.884 172.218 288.708 171.708 288.776 171.158C288.834 170.698 289.221 170.324 289.435 169.938C289.652 169.543 289.745 169.107 289.835 168.668ZM125.69 152.202C125.88 152.087 126.341 151.779 126.293 152.27C126.263 152.57 125.814 152.443 125.961 152.773C126.008 152.879 126.643 153.055 126.753 153.057C126.747 152.748 127.028 152.704 127.219 152.824C127.302 152.878 127.162 153.141 127.231 153.205C127.342 153.308 127.486 153.19 127.6 153.249C127.741 153.322 127.801 153.309 127.947 153.41C128.031 153.469 128.008 153.673 128.11 153.755C128.283 153.893 128.62 153.911 128.821 154.086C129.586 154.749 130.845 155.338 131.894 154.975H131.94C132.377 155.033 132.789 154.549 133.242 154.509C133.603 154.477 134.005 154.365 134.371 154.422C134.613 154.46 134.543 154.65 134.861 154.528C135.131 154.425 135.162 154.192 135.498 154.179C135.733 154.169 135.887 154.39 136.151 154.278C136.39 154.178 136.451 153.823 136.758 153.805C137.128 153.783 137.769 154.568 137.822 154.905C137.858 155.134 137.765 155.257 137.716 155.451C137.676 155.609 137.575 155.675 137.586 155.853C137.592 155.953 137.731 156.127 137.731 156.139C137.726 156.553 137.37 156.822 137.41 157.356C137.431 157.629 137.525 157.677 137.406 157.962C137.278 158.267 137.021 158.338 137.08 158.741C137.114 158.972 137.465 160.005 137.265 160.205C136.997 160.47 136.823 159.987 136.607 160.016C136.349 160.053 136.162 160.537 136.187 160.762L136 160.901C135.953 161.112 135.953 161.313 135.906 161.53C135.89 161.604 135.978 161.797 135.959 161.837C135.895 161.967 135.744 161.893 135.671 162.01C135.508 162.268 135.347 162.873 135.347 163.198C135.347 163.295 135.682 164.751 135.073 164.015C134.892 163.795 135.108 163.623 134.778 163.467C134.643 163.403 134.094 163.296 133.951 163.298C133.954 163.535 134.074 163.809 133.9 163.991C133.755 163.9 133.673 163.729 133.622 163.564C133.069 163.647 133.21 164.007 133.34 164.347C133.407 164.522 133.709 165.222 133.203 165.062C133.206 164.736 133.126 164.425 132.871 164.614C132.709 164.735 132.831 165.413 132.368 165.066C132.224 165.504 131.762 166.372 131.334 166.549C130.97 166.699 130.789 166.531 130.51 166.359C130.248 166.198 130.155 166.14 129.842 166.081C129.364 165.99 128.636 166.048 128.439 165.672C127.949 164.728 129.06 165.362 129.268 165.162C129.019 164.8 128.393 164.892 128.16 164.573C128.113 164.698 127.98 164.749 127.928 164.819C127.668 164.612 127.871 164.383 127.789 164.118C127.715 163.881 127.555 163.781 127.394 163.61C127.322 163.535 127.342 163.404 127.265 163.323C127.193 163.249 127.023 163.329 126.972 163.259C126.855 163.096 126.894 162.832 126.854 162.628L126.807 162.675C126.833 162.313 126.57 161.894 126.399 161.6C126.174 161.211 126.188 161.045 126.143 160.572C125.999 159.079 126.697 161.051 127.273 160.389C126.718 160.068 126.845 159.854 126.673 159.375C126.143 159.991 126.321 158.936 126.296 158.707C126.241 158.218 125.899 157.704 125.453 157.495L125.407 157.588C125.442 157.296 125.393 156.876 125.293 156.609C125.206 156.379 124.56 155.79 124.946 155.643C124.917 155.393 124.754 155.11 124.718 154.835C124.684 154.576 124.725 154.243 124.711 153.958C124.703 153.804 124.582 153.765 124.621 153.575C124.654 153.42 124.843 153.437 124.897 153.287C124.986 153.036 124.884 152.629 124.94 152.361L124.987 152.222C125.32 152.618 125.398 152.379 125.69 152.202ZM133.018 166.195H132.978C132.983 166.181 132.989 166.169 132.995 166.156C133.003 166.168 133.011 166.181 133.018 166.195ZM133.115 165.279C133.167 165.3 133.267 165.655 133.258 165.717C133.226 165.926 133.08 165.973 132.995 166.156C132.825 165.876 132.515 166.188 132.359 165.843C132.43 165.726 132.867 165.184 133.115 165.279ZM134.392 164.395C134.32 164.193 134.279 163.738 134.677 163.941C134.775 163.992 134.8 164.205 134.913 164.279C135.035 164.358 135.166 164.292 135.295 164.399C135.542 164.604 135.537 164.967 135.213 165.116C135.126 165.009 135.06 164.887 135.016 164.759C134.897 164.837 134.833 164.967 134.774 165.117L134.694 164.998C134.4 164.974 134.58 164.812 134.532 164.668C134.521 164.634 134.615 164.535 134.595 164.462C134.578 164.403 134.404 164.429 134.392 164.395ZM137.965 151.929C138.221 151.927 138.75 152.556 138.406 152.753C138.121 152.916 138.216 152.532 138.071 152.486C137.82 152.408 137.89 152.594 137.795 152.751C137.573 153.117 137.271 153.234 137.306 152.684C137.393 152.664 137.444 152.595 137.507 152.571C137.29 152.404 136.815 152.502 136.907 152.069L137.015 151.997C137.2 151.975 137.35 152.101 137.518 152.097C137.679 152.092 137.816 151.93 137.965 151.929ZM136.941 149.097C137.306 149.109 137.432 149.821 137.681 150.044C137.864 150.208 138.134 150.202 138.129 150.528C138.125 150.759 137.882 150.818 137.871 151.015C138.06 150.987 138.271 151.194 138.166 151.396C138.065 151.591 137.792 151.458 137.589 151.46L137.481 151.496C137.108 151.432 137.17 151.451 137.054 151.137C136.977 150.928 136.903 150.647 136.731 150.491C136.811 150.379 136.931 150.16 136.874 150.006C136.785 149.767 136.605 149.897 136.459 149.774C136.228 149.579 136.408 149.671 136.575 149.516C136.733 149.371 136.859 149.31 136.941 149.097ZM122.679 147.123C123.353 147.202 123.221 147.864 123.25 148.334C123.277 148.776 123.097 149.392 122.494 149.452L122.387 149.487C122.261 149.347 122.374 149.105 122.317 148.908C122.227 148.598 122.125 148.653 122.233 148.332C122.298 148.141 122.336 147.82 122.419 147.655C122.452 147.591 122.618 147.531 122.676 147.442C122.708 147.392 122.678 147.175 122.679 147.123ZM222.459 119.282C222.723 119.27 222.993 119.714 223.089 119.848C223.57 120.521 223.57 121.519 223.779 122.295C223.814 122.425 223.95 123.176 224.15 123.191C225.192 123.272 226.359 122.329 227.384 122.116C228.113 121.968 228.733 122.49 229.454 122.302C230.38 122.058 230.81 121.377 231.878 121.634C233.589 122.041 233.882 123.768 235.402 124.349C235.784 124.495 236.414 124.236 236.825 124.208C237.779 124.149 238.834 124.359 239.619 124.915C240.814 125.765 241.441 127.702 242.864 128.147C243.993 128.499 245.091 128.506 246.236 128.707C246.948 128.831 247.601 129.173 248.329 129.291C248.949 129.393 249.59 129.139 250.198 129.371C250.999 129.677 251.438 130.48 252.158 130.913C252.816 131.308 253.576 131.388 254.13 131.957C254.465 132.3 254.719 132.72 254.902 133.162C255.445 134.469 255.799 135.668 254.102 135.996C253.811 136.055 253.565 136.046 253.265 136.012C252.764 135.959 250.797 135.026 250.944 136.079C251.231 138.121 253.561 138.839 254.858 140.025C256.092 141.153 256.157 142.225 256.509 143.769C256.63 144.304 256.913 144.929 256.913 145.475C256.913 146.322 255.464 146.736 254.832 146.764C252.67 146.859 251.346 144.876 249.319 144.666C248.378 144.567 247.42 144.721 246.479 144.73C245.738 144.733 244.899 144.57 244.172 144.759C242.688 145.139 241.588 146.418 239.853 145.68C239.213 145.405 238.349 144.391 238.766 143.625C239.298 142.652 240.564 142.348 241.149 141.338C241.755 140.29 240.988 139.521 240.916 138.489C240.873 137.871 241.176 137.293 241.208 136.679C241.241 136.048 240.842 135.421 240.495 134.927C239.463 133.456 237.834 132.424 236.424 131.351C235.56 130.693 234.831 129.872 233.898 129.309C233.282 128.936 232.371 128.308 231.627 128.222C230.781 128.126 229.875 128.806 229.04 128.973C226.834 129.411 224.14 128.709 222.108 127.721C221.471 126.942 220.271 125.564 220.286 124.498C220.298 123.624 220.946 122.509 221.175 121.659C221.373 120.927 221.351 119.329 222.459 119.282ZM114.854 121.907C114.89 121.953 114.955 122.012 115.064 122.04C115.161 122.064 115.257 122.056 115.336 122.055L115.48 122.047C115.505 122.047 115.529 122.045 115.561 122.071C115.601 122.106 115.651 122.15 115.714 122.181C115.828 122.238 115.944 122.288 116.06 122.338L116.288 122.439C116.365 122.482 116.465 122.516 116.565 122.527C116.794 122.521 116.873 122.31 116.91 122.211C116.926 122.18 116.936 122.167 116.933 122.163C116.94 122.163 116.95 122.161 116.954 122.159C116.976 122.178 117.012 122.203 117.06 122.223C117.176 122.269 117.331 122.255 117.367 122.261C117.481 122.286 117.585 122.284 117.7 122.286L117.789 122.29C117.874 122.297 117.964 122.302 118.064 122.284C118.15 122.265 118.216 122.227 118.27 122.196C118.288 122.185 118.306 122.172 118.33 122.163C118.464 122.113 118.566 122.117 118.592 122.157C118.599 122.181 118.606 122.209 118.615 122.236C118.661 122.37 118.763 122.503 118.877 122.586C118.936 122.632 118.998 122.656 119.048 122.677C119.066 122.684 119.095 122.695 119.098 122.695C119.103 122.703 119.114 122.73 119.116 122.781C119.118 122.812 119.116 122.846 119.114 122.881C119.109 123.035 119.1 123.268 119.282 123.431C119.339 123.479 119.4 123.503 119.478 123.529C119.476 123.546 119.474 123.562 119.474 123.573L119.47 123.652L119.472 123.733C119.472 123.796 119.474 123.857 119.455 123.945C119.435 124.033 119.402 124.164 119.499 124.326C119.584 124.464 119.704 124.53 119.792 124.578C119.878 124.626 119.895 124.639 119.906 124.671L119.921 124.729C119.963 124.886 120.024 125.121 120.219 125.21C120.263 125.228 120.311 125.239 120.356 125.239C120.415 125.239 120.475 125.225 120.53 125.195C120.758 125.079 120.827 124.796 120.878 124.588C120.889 124.544 120.891 124.505 120.913 124.43C120.937 124.389 120.968 124.341 120.986 124.276C120.986 124.274 120.987 124.274 120.988 124.272C121.01 124.341 121.056 124.396 121.131 124.449C121.269 124.546 121.365 124.531 121.534 124.523C121.557 124.52 121.587 124.52 121.615 124.519C121.632 124.563 121.654 124.603 121.676 124.628C121.799 124.771 121.985 124.781 122.125 124.766C122.167 124.768 122.23 124.767 122.239 124.768C122.462 124.871 122.65 125.008 122.83 125.193C122.845 125.21 122.855 125.223 122.866 125.235C122.808 125.256 122.736 125.282 122.672 125.332C122.363 125.575 122.624 125.976 122.736 126.147C122.757 126.178 122.775 126.206 122.784 126.224C122.813 126.28 122.813 126.322 122.812 126.462C122.81 126.738 122.913 126.917 123.161 127.056C123.305 127.136 123.458 127.172 123.587 127.196C123.618 127.203 123.65 127.206 123.681 127.206C123.726 127.206 123.758 127.205 123.816 127.196C123.818 127.235 123.816 127.281 123.816 127.316C123.815 127.511 123.81 127.807 124.082 127.936C124.159 127.973 124.237 127.98 124.303 127.98C124.341 127.98 124.38 127.978 124.417 127.978L124.39 127.999C124.424 128.155 124.498 128.218 124.579 128.279C124.687 128.438 124.836 128.552 124.975 128.645C125.079 128.717 125.179 128.785 125.241 128.864C125.273 128.903 125.295 128.946 125.319 128.986C125.369 129.075 125.432 129.183 125.54 129.269C125.564 129.289 125.58 129.31 125.599 129.33C125.624 129.357 125.648 129.385 125.678 129.413C125.746 129.473 125.822 129.507 125.932 129.553C126.005 129.589 126.083 129.616 126.16 129.64C126.204 129.652 126.251 129.665 126.293 129.683C126.376 129.722 126.446 129.791 126.536 129.883L126.553 129.943C126.557 129.98 126.562 130.019 126.571 130.063C126.597 130.179 126.639 130.265 126.678 130.341C126.692 130.37 126.709 130.403 126.724 130.436C126.792 130.602 126.862 130.724 127.021 130.848C127.092 130.903 127.149 130.978 127.241 131.101C127.302 131.182 127.368 131.249 127.435 131.315C127.473 131.354 127.512 131.392 127.547 131.434C127.621 131.521 127.679 131.551 127.753 131.582L127.819 131.621C127.869 131.656 127.939 131.703 128.044 131.723C128.05 131.724 128.107 131.731 128.173 131.731C128.215 131.731 128.259 131.728 128.296 131.719C128.419 131.689 128.496 131.613 128.531 131.486C128.574 131.483 128.622 131.472 128.674 131.448C128.912 131.334 128.907 131.104 128.905 130.955C128.903 130.87 128.911 130.863 128.978 130.809C129.057 130.75 129.134 130.676 129.134 130.485C129.145 130.469 129.143 130.463 129.319 130.465L129.461 130.461C129.713 130.464 129.893 130.456 129.976 130.568L130.162 130.425L130.369 130.633C130.461 130.539 130.515 130.506 130.579 130.504L130.638 130.498C130.687 130.496 130.79 130.494 130.811 130.49C130.82 130.498 130.842 130.527 130.856 130.546C130.915 130.623 131.006 130.741 131.22 130.793C131.247 130.819 131.275 130.845 131.324 130.914C131.407 131.028 131.529 131.203 131.775 131.213H132.16L132.168 131.223C132.188 131.26 132.209 131.295 132.234 131.363C132.295 131.531 132.389 131.597 132.582 131.606H132.617C132.661 131.606 132.744 131.607 132.842 131.601C132.886 131.598 132.957 131.594 132.979 131.599C133.008 131.621 133.039 131.645 133.068 131.671C133.158 131.744 133.27 131.838 133.413 131.875C133.459 131.886 133.501 131.891 133.543 131.891C133.688 131.891 133.807 131.829 133.89 131.785C133.923 131.769 133.955 131.75 134.023 131.726C134.093 131.706 134.239 131.661 134.289 131.448C134.304 131.38 134.298 131.314 134.273 131.209C134.289 131.209 134.292 131.211 134.356 131.267C134.396 131.304 134.438 131.341 134.481 131.367C134.541 131.409 134.6 131.43 134.697 131.467L134.738 131.538C134.782 131.612 134.849 131.724 134.959 131.783C135.027 131.822 135.089 131.834 135.113 131.814L135.236 131.86L135.313 131.919H135.627C135.673 131.919 135.725 131.916 135.776 131.912C135.852 131.908 135.935 131.905 135.978 131.912C136.011 131.918 136.059 131.957 136.106 131.993C136.14 132.019 136.173 132.045 136.198 132.063C136.281 132.122 136.381 132.155 136.489 132.159H136.498C136.695 132.159 136.778 132.046 136.841 131.962C136.938 131.857 137.03 131.864 137.284 131.925L137.426 131.954C137.576 131.985 137.734 131.96 137.848 131.887C137.941 131.826 138.004 131.731 138.028 131.617C138.032 131.597 138.033 131.579 138.033 131.56C138.063 131.573 138.093 131.586 138.12 131.594C138.167 131.608 138.329 131.651 138.474 131.645C138.573 131.64 138.636 131.606 138.711 131.567C138.729 131.558 138.971 131.566 139.072 131.646C139.194 131.749 139.321 131.827 139.457 131.908C139.501 131.936 139.544 131.958 139.586 131.978C139.637 132.004 139.676 132.022 139.709 132.05C139.685 132.081 139.663 132.122 139.648 132.172C139.595 132.371 139.735 132.503 139.802 132.565C139.815 132.582 139.83 132.623 139.819 132.681C139.79 132.742 139.748 132.833 139.755 132.958C139.768 133.129 139.853 133.247 139.914 133.334C139.945 133.378 139.973 133.416 139.985 133.453C139.996 133.482 139.995 133.533 139.995 133.588L139.989 133.688C139.982 133.786 139.971 133.908 140.033 134.011C140.074 134.08 140.132 134.12 140.189 134.149V134.265C140.194 134.352 140.219 134.434 140.306 134.532C140.332 134.564 140.364 134.593 140.395 134.623C140.389 134.633 140.386 134.642 140.381 134.65C140.355 134.692 140.331 134.735 140.316 134.773C140.293 134.825 140.276 134.88 140.26 134.935C140.243 134.989 140.228 135.038 140.189 135.106C140.075 135.298 139.917 135.56 140.057 135.757C140.092 135.805 140.201 135.909 140.401 135.869C140.462 135.854 140.521 135.833 140.576 135.811C140.629 135.791 140.675 135.773 140.714 135.771C140.738 135.771 140.769 135.773 140.875 135.839L141.086 135.968C141.126 135.993 141.166 136.02 141.204 136.051C141.339 136.156 141.466 136.25 141.606 136.342C141.644 136.367 141.685 136.388 141.726 136.406L141.801 136.454C141.829 136.48 141.869 136.518 141.928 136.55C141.983 136.577 142.029 136.61 142.079 136.643L142.18 136.714C142.239 136.752 142.288 136.801 142.338 136.847C142.4 136.904 142.462 136.959 142.528 137.007L142.655 137.095C142.727 137.142 142.799 137.193 142.865 137.25C142.972 137.34 143.09 137.436 143.211 137.504C143.26 137.531 143.314 137.557 143.365 137.583C143.428 137.614 143.493 137.646 143.556 137.684L143.66 137.752C143.727 137.796 143.793 137.839 143.859 137.874L143.94 137.918C144.029 137.966 144.125 138.016 144.202 138.071C144.22 138.084 144.236 138.101 144.25 138.115C144.285 138.15 144.329 138.192 144.432 138.265C144.463 138.297 144.494 138.329 144.529 138.352C144.566 138.38 144.607 138.401 144.648 138.421C144.671 138.434 144.69 138.443 144.699 138.45C144.734 138.48 144.77 138.503 144.845 138.555C144.911 138.604 144.984 138.643 145.06 138.682C145.113 138.707 145.167 138.736 145.253 138.809C145.284 138.842 145.318 138.875 145.363 138.908C145.395 138.928 145.426 138.947 145.459 138.966C145.49 138.982 145.519 138.997 145.535 139.014L145.774 139.15C145.742 139.521 145.649 139.393 145.935 139.77C145.446 139.977 145.052 140.039 144.604 140.365C144.029 140.783 143.538 140.87 142.821 140.797C142.254 140.739 141.737 140.576 141.152 140.553C140.574 140.529 140.085 140.626 139.508 140.649L139.312 140.797C137.387 140.796 135.458 141.84 134.132 143.173C133.683 143.624 133.441 143.582 132.881 143.744C132.6 143.825 132.473 144.054 132.144 143.953C131.903 143.879 131.805 143.502 131.505 143.592C131.029 143.734 131.426 144.434 131.731 144.506C131.985 144.566 132.047 144.117 132.197 144.528C132.241 144.649 132.081 145.041 132.034 145.164C131.974 145.324 131.892 145.804 131.6 145.71C131.495 145.674 131.378 145.19 131.318 145.056C131.169 144.715 130.62 143.802 130.328 144.527C130.193 144.401 129.701 142.695 129.297 143.398V143.447C128.89 143.247 128.63 142.938 128.167 142.807C127.88 142.726 127.17 142.476 127.814 142.175C127.915 142.354 128.118 142.5 128.339 142.464C128.334 142.461 128.882 142.086 128.905 142.077C129.214 141.574 128.733 141.01 128.167 141.301C127.887 141.444 127.972 141.645 127.817 141.783C127.676 141.909 127.257 142.003 127.063 142.024C126.534 142.083 126.229 141.795 125.922 141.355C126.584 141.261 126.604 141.664 127.162 141.064C127.309 140.906 127.631 140.713 127.582 140.467C127.535 140.228 127.161 140.164 127.035 139.875C126.914 139.597 127.202 139.461 126.795 139.424C126.571 139.403 126.218 139.725 126.006 139.816C125.665 139.963 124.856 140.026 124.792 140.459C125.101 140.546 126.162 140.321 126.208 140.697C126.289 141.363 124.992 141.414 124.655 141.488C124.032 141.625 121.653 144.238 121.099 143.398H121.049C120.746 143.313 120.355 143.163 120.103 142.957C119.828 142.732 119.709 142.405 119.427 142.196C119.136 141.981 118.744 141.908 118.436 141.72C118.089 141.508 117.891 141.104 117.514 140.992C117.237 140.91 116.923 141.075 116.649 141.042C116.218 140.989 116.081 140.652 115.698 140.49C115.452 140.386 114.991 140.323 114.752 140.499C114.518 140.672 114.598 141.101 114.127 140.994C113.936 140.95 114.128 140.806 113.97 140.707L114.697 121.966C114.729 121.952 114.76 121.941 114.793 121.926C114.806 121.922 114.83 121.914 114.854 121.907ZM115.681 84.4667L113.501 140.631C113.462 140.623 113.421 140.6 113.341 140.489C113.126 140.192 113.313 139.69 112.802 139.619H112.753C112.193 139.073 111.346 139.373 110.699 138.931C110.046 138.483 109.854 137.791 109.514 137.115C109.357 136.804 109.203 136.507 108.937 136.292C108.585 136.009 108.115 135.86 108.05 135.301C107.996 134.834 108.226 134.717 108.04 134.226C107.833 133.681 107.801 133.924 108.236 133.433L108.285 133.385C108.304 132.623 108.448 131.986 108.2 131.226C107.904 130.321 107.368 129.503 106.764 128.771C106.335 128.252 105.312 127.219 104.596 127.197C104.262 127.187 104.285 127.35 104.052 127.479C103.77 127.636 103.78 127.67 103.421 127.689C103.138 127.704 102.548 127.845 102.296 127.742C101.637 127.471 102.175 127.181 102.454 127.005C102.701 126.849 102.739 126.638 102.932 126.46C103.11 126.295 103.355 126.257 103.572 126.168H103.621C103.621 125.36 104.156 124.756 103.967 123.958C103.78 123.175 103.07 122.69 102.833 121.943C102.743 121.66 102.789 121.294 102.49 121.107C101.974 120.785 102.083 121.187 102.002 121.503C101.907 121.87 101.578 122.077 101.47 122.436C101.38 122.734 101.484 123.072 101.39 123.369C101.291 123.677 101.1 123.965 101.03 124.299C100.971 124.581 101.012 125.195 100.775 125.386C100.513 125.597 100.146 125.305 99.8907 125.284C99.6262 125.263 99.1973 125.351 98.9571 125.476C98.8155 125.551 98.6992 125.763 98.5655 125.815C98.3109 125.914 98.232 125.739 98.0059 125.77C97.6974 125.814 97.0661 126.257 97.3301 125.53C97.4092 125.313 97.7341 125.209 97.8663 125.027C97.9973 124.847 97.9736 124.686 98.085 124.511C98.358 124.081 98.5179 124.146 99.0079 124.206C99.3113 124.243 99.2919 124.461 99.5616 124.153C99.7297 123.961 99.6517 123.807 99.6934 123.578C99.7762 123.125 99.9907 122.723 99.9278 122.237C99.8983 122.011 99.7606 121.819 99.794 121.576C99.8247 121.352 100.037 121.182 100.09 120.966C100.136 120.776 100.073 120.616 100.135 120.423C100.189 120.257 100.352 120.133 100.381 119.932L100.48 119.834C100.411 119.403 100.693 119.123 100.981 118.851C101.16 118.683 101.854 118.267 101.903 118.071C102.019 117.613 100.632 116.304 101.947 116.194C101.917 115.681 102.046 115.279 101.879 114.779C101.751 114.398 101.643 113.479 101.234 113.355C101.175 113.78 101.288 114.162 101.373 114.579C101.537 115.385 101.301 114.93 100.821 115.255C100.585 115.415 100.222 115.974 100.039 116.238C99.7656 116.633 99.6218 117.092 99.4385 117.527C99.2481 117.979 99.176 118.362 98.7647 118.556C98.3455 118.755 97.9333 118.842 97.5245 119.099C96.9963 119.433 96.3045 119.755 95.8409 120.145C95.4991 120.433 95.4811 120.928 95.2227 121.285C95.0893 121.469 94.935 121.591 94.8213 121.796C94.7043 122.007 94.7175 122.225 94.5147 122.403C94.3228 122.571 94.0882 122.566 93.9122 122.776C93.7661 122.951 93.71 123.272 93.5831 123.472C93.8078 123.528 94.101 123.417 94.3487 123.385C94.3997 123.518 94.345 124.324 94.2188 124.425C93.9415 124.641 93.5862 124.002 93.2598 123.961C93.0447 124.846 92.0719 123.277 91.7901 123.025C91.7869 122.322 91.2418 122.623 90.8721 122.477C90.9918 122.238 91.1935 121.96 91.4766 121.949C91.4589 122.29 92.0453 122.315 92.2344 122.621C92.3583 122.332 91.8412 122.004 91.751 121.688C91.6736 121.416 91.8171 121.088 91.7413 120.819C91.6791 120.599 91.5079 120.542 91.4424 120.325C91.4004 120.186 91.454 119.979 91.4346 119.833C91.3899 119.497 91.2473 119.109 90.9756 118.893C90.6757 118.655 90.197 118.701 89.9112 118.461C89.5149 118.127 89.8087 117.896 89.7784 117.459C89.7131 116.519 88.9761 116.271 88.2549 116.103L88.001 116.072C87.7113 115.742 87.5639 115.336 87.3536 114.99C87.2199 114.77 87.178 114.777 87.1211 114.497C87.0833 114.309 87.1238 114.086 87.1006 113.894C87.4992 113.683 87.6613 114.459 87.794 113.951C87.8617 113.69 87.606 113.206 87.4317 113.02C86.9792 112.539 86.9402 112.996 86.4493 113.165C85.9031 113.352 85.8323 112.922 86.1866 112.498C86.5123 112.108 87.0452 112.068 86.2969 111.686C86.104 111.588 85.8722 111.595 85.6758 111.509C85.5055 111.434 85.2929 111.181 85.1026 111.168C84.8032 111.148 84.3573 111.506 83.9776 111.52C83.5381 111.537 83.1781 111.398 82.8799 111.055C82.3299 111.101 82.1341 110.586 81.6885 110.382C81.2881 110.198 81.0597 110.295 80.7071 110.473C79.6167 111.023 79.415 110.617 78.5743 109.853C78.0263 109.356 76.9089 108.497 76.1553 108.361C75.5974 108.261 75.4597 108.524 75.0674 108.782C74.7831 108.969 74.4162 108.992 74.086 109.037H73.9307C72.6169 109.037 71.3318 108.811 70.0108 108.882C69.256 108.922 68.4546 109.142 67.6963 109.423L66.67 84.9715C82.9357 84.5502 99.428 84.3811 115.681 84.4667ZM161.438 97.1737C161.469 97.2454 161.524 97.3378 161.634 97.4002C161.781 97.4793 161.973 97.4661 162.12 97.4569C162.161 97.455 162.194 97.453 162.276 97.453C162.328 97.4565 162.382 97.4583 162.437 97.451C162.529 97.4382 162.589 97.3997 162.614 97.3739C162.636 97.3739 162.714 97.3744 162.781 97.4071C162.814 97.4348 162.857 97.4685 162.914 97.4959C163.012 97.5454 163.102 97.5545 163.176 97.5545C163.328 97.5488 163.408 97.5194 163.496 97.4735C163.584 97.4459 163.697 97.4491 163.814 97.4491C163.866 97.4528 163.917 97.451 163.969 97.451C164.112 97.4474 164.188 97.4095 164.282 97.3358L164.354 97.2762C164.381 97.2523 164.418 97.2229 164.435 97.2137C164.472 97.1954 164.583 97.2031 164.652 97.2069C164.698 97.2101 164.713 97.1825 164.751 97.1825H164.794C164.795 97.1926 164.793 97.205 164.795 97.2147C164.897 97.8966 164.879 98.538 165.271 99.12C165.701 99.7599 165.44 99.6321 165.267 100.334C165.175 100.704 165.231 101.139 165.231 101.522L165.134 101.767C165.128 102.396 164.98 102.364 164.593 102.792C164.396 103.01 164.433 103.106 164.348 103.336C164.26 103.572 164.239 103.625 164.106 103.827C163.828 104.247 163.843 104.337 163.762 104.848C163.69 105.296 163.473 105.68 163.288 106.087C163.117 106.464 162.885 106.878 162.737 107.218C162.598 107.539 162.629 107.945 162.473 108.298C162.157 109.012 161.217 109.722 161.353 110.596C161.384 110.794 161.58 110.919 161.625 111.12C161.686 111.394 161.558 111.417 161.511 111.635C161.457 111.883 161.433 112.034 161.316 112.227C161.206 112.411 160.984 112.462 160.911 112.716L160.862 112.863C160.918 113.41 160.582 113.564 160.37 113.994C160.164 114.414 160.286 114.669 159.931 115.06C159.441 115.598 158.495 116.332 158.454 117.123C158.428 117.628 158.649 117.997 158.053 118.277C157.843 118.376 157.573 118.313 157.363 118.446C157.123 118.598 157.113 118.774 156.947 119.012C156.55 119.58 156.089 119.569 155.476 119.698C154.859 119.828 154.665 120.329 154.363 120.831C154.097 121.274 153.899 121.938 153.521 122.292C153.277 122.519 153.158 122.412 153.005 122.792C152.889 123.079 152.919 123.328 152.713 123.614V123.713C152.719 124.035 152.472 124.108 152.292 124.324C152.117 124.535 152.088 124.783 151.93 124.978C151.715 125.244 151.439 125.294 151.226 125.581C151.065 125.798 150.97 126.067 150.866 126.314C150.656 126.816 150.613 127.346 150.408 127.834C150.264 128.178 150.183 128.1 150.208 128.474C150.224 128.725 150.411 128.862 150.21 129.108C150.013 128.991 150.079 128.349 149.716 128.766C149.319 129.223 150.004 129.027 149.97 129.358C149.939 129.651 149.312 129.403 149.129 129.501C148.833 129.659 148.819 130.121 148.667 130.367C148.541 130.57 148.277 130.661 148.156 130.841C148.041 131.013 148.078 131.232 147.99 131.369C147.818 131.636 147.571 131.669 147.458 131.96C147.419 132.059 147.54 132.222 147.504 132.35C147.438 132.583 147.164 132.744 147.076 132.98C146.95 133.322 147.019 133.761 147.019 134.12C146.874 134.608 146.545 134.992 146.38 135.493C146.267 135.836 146.116 135.916 145.916 136.228C145.735 136.512 145.796 136.611 145.742 136.941C145.705 137.174 145.565 137.372 145.545 137.594C145.514 137.944 145.693 137.966 145.795 138.241C145.848 138.385 145.854 138.524 145.844 138.659C145.789 138.611 145.733 138.577 145.687 138.553C145.666 138.542 145.646 138.531 145.593 138.483C145.563 138.452 145.532 138.42 145.497 138.394C145.429 138.343 145.352 138.3 145.273 138.262C145.221 138.234 145.169 138.21 145.121 138.174L145.066 138.137C145.044 138.12 145.022 138.107 144.998 138.087C144.947 138.045 144.897 138.019 144.856 138.001L144.766 137.936C144.736 137.905 144.694 137.863 144.634 137.826C144.619 137.817 144.6 137.8 144.578 137.778C144.547 137.747 144.513 137.715 144.475 137.687C144.383 137.621 144.269 137.561 144.162 137.502L144.081 137.459C144.026 137.429 143.972 137.394 143.921 137.359L143.803 137.284C143.729 137.236 143.649 137.198 143.572 137.159C143.527 137.137 143.483 137.115 143.44 137.093C143.347 137.038 143.254 136.96 143.17 136.889C143.091 136.822 143.005 136.763 142.919 136.704L142.801 136.623C142.75 136.586 142.703 136.542 142.659 136.5C142.589 136.435 142.519 136.372 142.437 136.317L142.345 136.257C142.281 136.211 142.216 136.168 142.12 136.107C142.089 136.078 142.055 136.05 142.019 136.028C141.987 136.008 141.952 135.991 141.868 135.949C141.738 135.863 141.617 135.776 141.494 135.679C141.402 135.607 141.304 135.548 141.205 135.487L141.115 135.433C141.014 135.369 140.899 135.3 140.725 135.3C140.692 135.3 140.653 135.301 140.616 135.307C140.618 135.305 140.619 135.301 140.621 135.298C140.663 135.222 140.688 135.143 140.71 135.073C140.721 135.035 140.732 134.996 140.748 134.959C140.757 134.935 140.772 134.912 140.787 134.887C140.827 134.817 140.879 134.729 140.894 134.626L140.897 134.494L140.828 134.386L140.758 134.319C140.723 134.286 140.688 134.255 140.658 134.238L140.66 134.165C140.662 134.091 140.665 133.977 140.573 133.855C140.538 133.811 140.498 133.782 140.456 133.758C140.458 133.747 140.458 133.738 140.46 133.728C140.462 133.697 140.464 133.669 140.464 133.598C140.467 133.511 140.469 133.404 140.429 133.294C140.394 133.197 140.34 133.121 140.298 133.06C140.254 132.998 140.228 132.96 140.242 132.889C140.274 132.824 140.327 132.716 140.3 132.567C140.282 132.47 140.239 132.368 140.184 132.289C140.176 132.28 140.169 132.269 140.158 132.258C140.201 132.204 140.241 132.123 140.231 132.013C140.219 131.871 140.123 131.788 140.061 131.731C139.971 131.643 139.876 131.596 139.795 131.556C139.764 131.541 139.732 131.525 139.699 131.505C139.585 131.437 139.477 131.37 139.372 131.283C139.232 131.167 139.011 131.092 138.77 131.092C138.705 131.092 138.619 131.092 138.518 131.136L138.443 131.173C138.399 131.165 138.324 131.163 138.26 131.143L138.204 131.119C138.162 131.099 138.103 131.071 138.027 131.058C137.759 131.013 137.654 131.151 137.597 131.27C137.549 131.373 137.556 131.46 137.591 131.491C137.58 131.493 137.554 131.5 137.518 131.491L137.391 131.464C137.135 131.403 136.786 131.326 136.495 131.639C136.484 131.65 136.475 131.663 136.464 131.674C136.442 131.659 136.42 131.641 136.397 131.623C136.314 131.558 136.21 131.475 136.063 131.447C135.958 131.429 135.842 131.435 135.744 131.442C135.704 131.444 135.664 131.447 135.627 131.447H135.394C135.323 131.397 135.253 131.382 135.197 131.378C135.183 131.365 135.157 131.319 135.116 131.249C135.078 131.175 135.037 131.11 134.922 131.05C134.885 131.029 134.844 131.015 134.802 131C134.784 130.994 134.756 130.984 134.743 130.976C134.716 130.958 134.691 130.935 134.669 130.915C134.581 130.836 134.459 130.715 134.228 130.74C133.972 130.762 133.815 130.945 133.818 131.21C133.818 131.236 133.82 131.265 133.822 131.295C133.769 131.315 133.719 131.341 133.668 131.368C133.589 131.408 133.548 131.425 133.529 131.418C133.489 131.406 133.424 131.355 133.369 131.307C133.329 131.274 133.287 131.239 133.248 131.212C133.105 131.111 132.933 131.121 132.812 131.129L132.649 131.135C132.629 131.085 132.604 131.038 132.57 130.977C132.48 130.816 132.399 130.738 132.177 130.738L132.025 130.74C131.945 130.738 131.867 130.744 131.792 130.74C131.774 130.731 131.735 130.676 131.682 130.602C131.643 130.545 131.593 130.497 131.543 130.449C131.449 130.361 131.394 130.339 131.28 130.317C131.271 130.312 131.247 130.28 131.232 130.26C131.181 130.193 131.112 130.101 130.981 130.052C130.865 130.008 130.72 130.02 130.555 130.031C130.415 130.037 130.306 130.091 130.209 130.157C129.974 129.985 129.675 129.982 129.446 129.991L129.284 129.993C129.132 129.975 128.91 129.984 128.754 130.205C128.686 130.293 128.674 130.368 128.669 130.47L128.658 130.461C128.454 130.626 128.43 130.809 128.434 131.004V131.016C128.228 131.016 128.137 131.125 128.101 131.239C128.095 131.237 128.091 131.236 128.086 131.232C128.047 131.206 128.008 131.18 127.968 131.162L127.905 131.129C127.861 131.075 127.815 131.029 127.768 130.981C127.718 130.932 127.666 130.88 127.591 130.781C127.512 130.676 127.43 130.569 127.311 130.475C127.231 130.415 127.205 130.369 127.157 130.255C127.137 130.209 127.119 130.168 127.099 130.13C127.067 130.067 127.044 130.02 127.031 129.96C127.026 129.934 127.021 129.91 127.02 129.889C127.008 129.8 126.993 129.679 126.87 129.552C126.774 129.454 126.656 129.332 126.485 129.255C126.423 129.227 126.36 129.207 126.296 129.188C126.245 129.172 126.193 129.157 126.144 129.134L126.065 129.097C126.041 129.087 126.004 129.071 125.996 129.065C125.98 129.051 125.967 129.034 125.952 129.017C125.917 128.979 125.882 128.94 125.836 128.903C125.795 128.872 125.766 128.818 125.728 128.752C125.693 128.689 125.655 128.627 125.609 128.57C125.503 128.436 125.363 128.339 125.239 128.257C125.114 128.172 124.997 128.091 124.945 127.994L124.89 127.944L124.846 127.876C124.835 127.813 124.816 127.698 124.723 127.611C124.624 127.521 124.509 127.508 124.417 127.508C124.371 127.508 124.301 127.502 124.299 127.52C124.286 127.483 124.288 127.384 124.288 127.321C124.29 127.196 124.291 127.068 124.239 126.948C124.131 126.698 123.858 126.719 123.742 126.73C123.715 126.732 123.687 126.734 123.678 126.734C123.584 126.716 123.473 126.692 123.391 126.646C123.288 126.588 123.28 126.568 123.282 126.443C123.284 126.309 123.288 126.171 123.201 126.006C123.185 125.976 123.16 125.935 123.131 125.89C123.1 125.843 123.039 125.75 123.012 125.685C123.014 125.685 123.017 125.684 123.019 125.683C123.103 125.654 123.231 125.61 123.312 125.492C123.37 125.407 123.471 125.179 123.168 124.866C122.945 124.638 122.714 124.47 122.438 124.341C122.333 124.291 122.222 124.295 122.117 124.295C122.096 124.298 122.085 124.291 122.077 124.282L122.055 124.261L121.977 124.19C121.853 124.023 121.631 124.042 121.491 124.054L121.431 124.057C121.429 124.056 121.429 124.054 121.429 124.054C121.416 123.991 121.373 123.837 121.288 123.741C121.224 123.666 121.125 123.627 121.029 123.623C120.871 123.623 120.719 123.728 120.633 123.82C120.532 123.936 120.531 124.055 120.533 124.118L120.514 124.178C120.492 124.214 120.46 124.264 120.441 124.323C120.423 124.378 120.421 124.428 120.41 124.515C120.405 124.539 120.394 124.583 120.381 124.627C120.379 124.621 120.379 124.616 120.377 124.61C120.368 124.575 120.359 124.545 120.354 124.523C120.284 124.31 120.124 124.223 120.019 124.164C119.956 124.131 119.921 124.111 119.913 124.057L119.928 123.993C119.937 123.945 119.941 123.898 119.942 123.852V123.606C119.95 123.505 119.959 123.366 119.884 123.248C119.805 123.138 119.689 123.1 119.595 123.078C119.58 123.054 119.583 122.955 119.585 122.901C119.587 122.85 119.589 122.798 119.587 122.756C119.581 122.642 119.55 122.482 119.433 122.362C119.361 122.292 119.278 122.261 119.219 122.237C119.201 122.23 119.171 122.218 119.158 122.209C119.116 122.179 119.075 122.126 119.046 122.034C119.026 121.957 118.991 121.828 118.842 121.732C118.619 121.587 118.327 121.666 118.172 121.72C118.122 121.736 118.075 121.761 118.029 121.789C118.009 121.801 117.981 121.818 117.973 121.82C117.94 121.831 117.875 121.824 117.819 121.82C117.777 121.817 117.736 121.815 117.678 121.815C117.623 121.815 117.534 121.813 117.47 121.801C117.409 121.788 117.35 121.788 117.301 121.788C117.271 121.781 117.247 121.788 117.247 121.79C117.221 121.768 117.171 121.725 117.083 121.699C117.024 121.688 116.936 121.691 116.877 121.695C116.628 121.725 116.531 121.917 116.49 121.996L116.484 122.011L116.244 121.903C116.138 121.859 116.03 121.813 115.923 121.76C115.913 121.754 115.89 121.734 115.875 121.72C115.833 121.683 115.781 121.637 115.706 121.603C115.616 121.568 115.52 121.574 115.41 121.58L115.309 121.583C115.269 121.586 115.206 121.587 115.2 121.587C115.174 121.556 115.134 121.504 115.057 121.462C114.952 121.411 114.836 121.431 114.717 121.462L115.614 98.3446C125.889 98.5865 136.31 98.9948 146.592 99.5604C146.601 99.561 146.611 99.5633 146.619 99.5633C146.831 99.5632 146.947 99.395 147.006 99.3104C147.021 99.2901 147.034 99.2679 147.091 99.2127C147.128 99.1796 147.176 99.1356 147.224 99.0565C147.242 99.0253 147.264 98.997 147.286 98.9676C147.31 98.9365 147.334 98.9069 147.355 98.8739C147.373 98.8485 147.389 98.8209 147.405 98.7918C147.42 98.766 147.448 98.7191 147.459 98.7118C147.474 98.7066 147.52 98.7119 147.549 98.7157C147.626 98.7211 147.728 98.7326 147.836 98.6942C148.003 98.6297 148.104 98.4786 148.183 98.3553C148.199 98.3276 148.216 98.3013 148.231 98.2811C148.245 98.2629 148.261 98.2393 148.286 98.1971L148.345 98.1991C148.45 98.1991 148.542 98.2078 148.643 98.2225C148.924 98.2647 149.027 97.9876 149.063 97.8934C149.07 97.8714 149.077 97.847 149.11 97.7938C149.118 97.7811 149.127 97.7644 149.138 97.7499C149.147 97.7499 149.157 97.7518 149.166 97.7518L149.239 97.7567C149.335 97.7567 149.372 97.7887 149.506 97.9266L149.552 97.9764C149.596 98.026 149.645 98.0805 149.707 98.1229C149.863 98.235 150.003 98.1805 150.084 98.1473L150.171 98.1395L150.175 98.1376C150.204 98.1467 150.234 98.1546 150.267 98.16C150.504 98.2077 150.651 98.0219 150.716 97.9354C150.731 97.9152 150.753 97.8855 150.755 97.8817C150.789 97.8728 150.898 97.8841 150.97 97.9188C151.174 98.0197 151.36 97.921 151.467 97.8622L151.529 97.8309C151.581 97.8071 151.64 97.7968 151.708 97.784C151.754 97.7767 151.801 97.7695 151.847 97.7567C151.869 97.7514 151.919 97.753 152.001 97.7567C152.115 97.7602 152.196 97.7401 152.288 97.6756C152.31 97.696 152.338 97.7259 152.358 97.7479C152.368 97.7597 152.381 97.8018 152.39 97.829C152.425 97.9357 152.491 98.1358 152.715 98.1893C152.774 98.2046 152.816 98.2316 152.871 98.2879L153.11 98.4715H153.189C153.322 98.4824 153.456 98.4751 153.606 98.4383C153.721 98.4071 153.845 98.3736 153.957 98.3221C154.038 98.2855 154.114 98.2638 154.242 98.2215C154.27 98.2123 154.292 98.2045 154.311 98.1991C154.318 98.2173 154.328 98.2343 154.337 98.2508C154.4 98.3483 154.475 98.4109 154.589 98.4569C154.633 98.4751 154.681 98.4881 154.729 98.5008C154.784 98.5155 154.841 98.5326 154.868 98.5545C154.971 98.6391 155.012 98.7029 155.117 98.8612L155.139 98.9129L155.152 98.9618C155.15 99.0096 155.147 99.0738 155.167 99.1454L155.2 99.2684L155.321 99.3075C155.439 99.3406 155.546 99.3198 155.627 99.2997C155.651 99.2942 155.688 99.2869 155.679 99.2723L155.743 99.3631C155.772 99.4017 155.798 99.4421 155.825 99.4842C155.866 99.5449 155.907 99.6082 155.968 99.6874C155.97 99.6972 155.97 99.7303 155.97 99.7665L155.968 99.8876C155.964 100.092 155.96 100.324 156.068 100.58C156.098 100.654 156.139 100.753 156.211 100.815C156.325 100.926 156.422 100.926 156.542 100.923C156.664 100.923 156.809 100.907 156.983 100.757C157.029 100.722 157.1 100.668 157.143 100.565C157.166 100.503 157.168 100.446 157.166 100.392C157.201 100.299 157.23 100.231 157.276 100.185C157.304 100.158 157.33 100.123 157.356 100.088C157.372 100.068 157.395 100.038 157.393 100.035C157.402 100.028 157.437 100.033 157.461 100.035C157.56 100.043 157.711 100.047 157.851 99.9208C157.874 99.8989 157.906 99.8695 157.915 99.8583C157.93 99.91 157.969 100.031 158.106 100.098C158.355 100.222 158.545 100.015 158.651 99.8973L158.679 99.8876L158.715 99.8768C158.745 99.8697 158.787 99.8407 158.825 99.827V99.8329L159.136 99.8348C159.163 99.8384 159.197 99.8397 159.23 99.8397C159.285 99.8397 159.346 99.8342 159.403 99.8084C159.515 99.7622 159.565 99.6868 159.585 99.6317C159.633 99.5102 159.585 99.4017 159.552 99.3299L159.516 99.2557C159.492 99.2081 159.478 99.1828 159.473 99.1571C159.526 99.1239 159.605 99.0771 159.668 98.9852C159.714 98.919 159.727 98.8508 159.732 98.7938C159.788 98.7532 159.889 98.6651 159.88 98.4813C159.871 98.2917 159.753 98.1529 159.664 98.0536C159.64 98.026 159.614 97.9982 159.598 97.9725C159.57 97.9282 159.532 97.8454 159.512 97.7811C159.547 97.7738 159.602 97.765 159.683 97.7577C159.745 97.7503 159.807 97.7352 159.867 97.7186C159.924 97.7021 159.975 97.6894 160.016 97.6893C160.049 97.6893 160.081 97.6874 160.117 97.6874C160.141 97.6836 160.167 97.6824 160.224 97.6952C160.283 97.7155 160.374 97.7407 160.475 97.7206C160.596 97.6946 160.666 97.617 160.729 97.5526C160.751 97.529 160.766 97.5193 160.81 97.5174L160.891 97.5145C161.02 97.5126 161.216 97.5078 161.365 97.2909C161.385 97.2613 161.406 97.2282 161.425 97.1932C161.428 97.1878 161.432 97.1808 161.438 97.1737ZM190.047 116.128C190.539 115.973 191.451 116.517 191.839 116.647C192.582 116.894 193.331 117.036 194.027 117.413C194.556 117.697 195.094 118.173 195.326 118.732C195.51 119.177 195.414 119.762 195.428 120.228C195.444 120.797 195.627 121.368 195.913 121.853C196.376 122.641 197.597 122.299 198.301 122.564C198.737 122.728 198.844 123.358 199.066 123.707C199.257 124.004 199.623 124.177 199.882 124.409C200.299 124.783 200.5 125.222 201.038 125.481C202.469 126.167 202.364 123.8 202.707 123.216C203.079 122.579 203.805 122.295 204.377 122.857C205.021 123.491 205.033 124.618 205.287 125.422C205.596 126.395 206.262 127.168 206.409 128.2C206.542 129.127 206.027 129.878 206.481 130.826C206.814 131.518 207.255 132.214 207.428 132.965C207.533 133.425 207.673 133.728 207.322 134.077C206.712 134.679 205.999 134.627 205.214 134.515C204.014 134.346 202.977 133.922 201.816 133.616C201.11 133.431 200.703 134.015 200.216 134.386C199.764 134.732 199.078 134.76 198.549 134.64C198.13 134.544 197.756 134.371 197.376 134.167C196.902 133.91 196.628 133.165 196.171 132.825C195.846 132.581 195.198 132.612 194.802 132.445C194.462 132.303 194.172 132.026 193.847 131.849C193.13 131.46 192.385 131.176 191.611 130.929C191.434 130.274 190.774 128.278 191.369 127.817C192.045 127.295 193.443 127.328 193.497 126.21C193.51 125.947 193.241 125.607 193.09 125.419C192.628 124.853 192.14 123.895 191.3 123.954C190.655 124 190.141 124.384 189.568 124.622C188.137 125.215 186.165 125.771 185.143 124.248C184.974 123.998 185.026 123.464 185.017 123.185C184.996 122.558 185.051 121.776 185.49 121.275C185.992 120.701 186.774 120.395 187.307 119.817C188.007 119.06 187.834 117.877 188.488 117.089C188.639 116.903 188.761 116.822 188.958 116.702C189.298 116.495 189.659 116.251 190.047 116.128ZM100.299 127.237C100.191 127.438 100.248 127.608 100.508 127.626C100.369 127.69 100.018 127.894 100.226 128.107C100.329 128.213 100.832 128.106 100.981 128.153C100.834 128.365 100.802 128.622 100.586 128.804C100.369 128.986 100.203 128.944 100.266 129.303H100.121C99.7545 129.547 99.651 129.459 99.2891 129.304C98.939 129.153 98.8585 129.286 98.5069 129.333C98.2663 129.365 98.0032 129.315 97.7579 129.303C97.2805 129.278 97.1818 129.381 96.7911 129.56C96.809 129.038 96.501 129.002 96.1172 128.821C96.2459 128.434 96.2807 128.128 96.6817 128.048C97.1002 127.964 97.4941 127.826 97.9083 127.697C98.2658 127.586 98.6094 127.463 98.9747 127.41C99.1845 127.38 99.393 127.415 99.6026 127.37C99.8395 127.319 100.041 127.169 100.299 127.237ZM54.5674 27.5204C54.7935 27.5599 54.9418 28.041 55.2159 28.1454C55.541 28.2686 55.6852 27.9837 55.9219 28.0536C56.6796 28.2784 57.8244 30.2251 58.4415 30.1073L58.4961 29.9618C58.5484 30.359 59.1608 30.7263 59.4385 30.9501C59.6427 31.1147 59.8281 31.268 60.0489 31.4012C60.2265 31.5082 60.6203 31.5915 60.7002 31.7215C60.1747 31.8403 59.7298 34.3441 60.2461 34.6932C60.2957 34.5829 60.2885 34.0593 60.3565 34.0086C60.5252 33.8833 60.7262 34.2576 60.9444 34.2391C61.0134 33.9854 60.7126 33.7362 60.7032 33.4266C60.6938 33.1137 60.8273 32.6057 61.1875 32.9823C61.1332 32.8494 61.1247 32.6808 61.2217 32.5868C61.2616 32.6323 61.3086 32.6745 61.3497 32.7215C61.3613 32.6615 61.3771 32.6305 61.3946 32.579C61.6255 32.8138 61.8303 32.6741 61.6934 32.4227C61.5582 32.1755 61.0808 32.1935 61.4961 31.9178C61.8698 31.6702 62.7759 31.78 63.1133 32.0467H63.1543C63.4575 32.0421 63.6308 32.1194 63.9844 32.2557L67.2286 109.511C66.8964 109.641 66.8231 109.768 66.5225 109.913C65.8236 110.249 65.1837 110.687 64.4639 110.993C63.8204 111.267 63.1296 111.438 62.4864 111.738C61.2649 112.307 59.9498 112.815 58.5821 112.812C57.9296 112.811 57.3054 112.738 56.668 112.71C55.7185 112.667 55.4793 113.16 54.8438 113.796L54.585 113.848C53.6722 113.933 52.5824 114.981 51.8038 115.451C50.894 116.001 49.7283 115.87 49.0616 116.795C48.7539 117.221 48.506 117.848 48.3711 118.349C48.318 118.547 48.329 118.833 48.2344 119.011C48.0628 119.332 47.8772 119.23 47.6153 119.469C47.1781 119.868 47.6139 120.379 47.1905 120.819C46.8214 121.203 46.4053 120.981 45.9854 121.291C45.7803 121.442 45.7499 121.839 45.377 121.706C45.0786 121.599 45.1443 121.106 44.7422 121.037C44.2697 120.957 43.7034 121.418 43.2237 121.458C43.2387 122.075 42.6233 121.533 42.334 121.553C41.9051 121.582 41.9577 121.999 41.5596 122.021C40.8862 122.06 40.8994 120.464 40.0489 121.606L39.9415 121.74C39.1107 121.74 38.3116 121.822 37.503 121.742C36.4241 121.636 35.8353 121.963 34.9034 122.372C34.138 122.708 33.3228 122.475 32.5821 122.872C31.6371 123.379 31.6108 124.021 31.67 124.96C31.5377 124.931 31.3403 125.007 31.209 124.975C31.2556 126.174 28.4918 124.831 28.9913 126.452C28.3553 126.734 27.8243 126.712 27.5821 127.409C27.3045 128.208 27.5494 128.413 26.5782 128.687C25.3905 129.023 24.2095 128.983 22.9756 128.983C21.6506 128.983 20.4152 128.788 19.1231 128.589C18.6654 128.518 18.749 128.696 18.3077 128.354C18.0164 128.128 17.8883 127.695 17.586 127.466C17.2025 127.175 16.3536 126.726 15.8526 126.779L15.7735 126.857C14.5623 127.011 14.4484 126.395 14.2295 125.471C14.0644 124.774 13.6688 123.893 14.1915 123.238C14.9941 123.852 15.3179 123.849 15.793 123.056C16.1811 122.41 16.5817 121.749 16.4825 120.969C16.3961 120.291 15.8494 119.683 15.8506 118.992C15.8521 118.241 16.5184 117.858 15.9307 117.175L15.8526 117.096C15.8526 116.013 16.0314 114.867 15.4014 113.951C15.0316 113.413 14.4982 112.945 14.1065 112.435C13.6591 111.853 13.3119 111.275 12.8917 110.681C12.1674 109.656 11.7134 108.484 11.2862 107.298C10.8271 106.024 11.3265 104.694 10.42 103.556L10.1846 103.634C10.2555 102.812 9.38447 102.184 9.10357 101.491C8.66205 100.402 8.04248 99.9157 7.27056 99.1014C6.55112 98.3426 6.81676 97.6638 6.49224 96.827C6.2425 96.1833 5.61236 95.1929 5.14654 94.66V94.8172C4.741 92.9053 1.01635 91.9058 2.377 89.9549C2.39076 90.511 3.56217 92.5011 4.20708 92.2313C4.87589 91.9507 4.44728 90.164 4.42974 89.5741C4.56493 89.9653 4.86476 90.4963 5.16997 90.7977C5.53376 91.1571 5.41963 91.3914 5.72857 90.6883C5.91816 90.2571 5.81415 89.0086 5.6104 88.618C5.42213 88.2573 4.72744 88.0131 4.4356 87.7167C4.04069 87.315 3.94518 86.8743 3.70904 86.3944C3.32525 85.6151 2.43878 85.0369 2.23345 84.1903L2.31157 84.1112C2.08717 83.1434 1.28349 82.4809 1.14849 81.4344C0.976309 80.0991 1.69724 79.6444 2.11821 78.5282C2.46978 77.5956 2.26546 76.7461 1.91802 75.8768C1.72319 75.39 1.10708 75.0422 0.924856 74.5917C0.699767 74.0346 1.21212 73.5424 1.28911 73.0116C1.30174 71.9769 1.67561 70.7926 2.53618 70.117C2.63125 70.6676 2.35284 71.187 2.46782 71.7342C2.58992 72.3156 3.1487 72.5932 2.79302 73.2372C3.35494 73.069 3.58378 73.057 3.86626 72.5584C4.10937 72.1291 4.10641 71.5203 4.33892 71.0477C4.93018 69.8472 6.18335 69.256 7.27154 68.5243L7.24614 68.5731C7.58336 68.0316 8.25587 67.5835 8.58989 67.0086C9.01256 66.2808 9.63482 65.8417 10.1387 65.1786C10.4912 64.7145 10.2618 64.8732 10.7334 64.5887C10.8748 64.5037 11.0921 64.5939 11.2471 64.4999C11.3738 64.4227 11.5304 64.0346 11.6407 63.9061C12.0101 63.4753 12.4108 62.4516 12.8467 62.2284C12.9378 62.5866 12.9926 62.9301 13.0284 63.2987C13.5343 63.4582 14.1146 63.0479 14.629 63.0565C14.9706 63.0624 15.1185 63.2235 15.544 63.1229C15.9314 63.0313 16.381 62.8049 16.7178 62.62H16.7969C17.3316 62.6385 17.7277 61.9634 18.1465 61.6795C18.6897 61.3122 19.2568 61.2064 19.8711 61.0633C21.1851 60.7571 21.3255 59.4611 22.4688 59.0145C23.438 58.6361 24.5491 59.0874 25.6114 58.6659C26.7032 58.2327 27.7489 57.4452 28.8409 57.1092H28.92C30.0871 57.332 31.5872 55.4625 32.1495 54.5711C32.5412 53.95 32.6238 53.5022 32.6983 52.7909C32.7814 51.9965 32.7919 51.9096 33.5625 51.6004C33.2215 50.5234 34.0445 50.3537 34.7461 49.7889C34.9932 49.59 35.8161 48.9199 35.6993 48.5272C35.5881 48.1567 34.9273 48.2469 34.7422 47.8221C34.6272 47.5573 34.6442 46.8556 34.586 46.5624C34.4991 46.1257 34.3614 45.7817 34.4268 45.3124C34.4881 44.8759 35.3952 43.399 35.8506 43.6825C35.791 42.6999 36.2817 42.6146 36.71 42.2313C37.134 41.8518 37.4254 40.5965 38.1231 40.5858C38.2158 41.0328 37.9855 41.3323 38.0967 41.7186C38.1775 41.999 38.6091 42.6487 38.7784 42.9413C39.1808 43.6361 39.5107 45.0894 40.2598 45.5135C40.8042 44.7903 40.4168 43.9234 40.6446 43.1844C40.9552 43.2747 41.2136 43.5663 41.5625 43.6434C41.8408 43.2335 40.8251 41.9463 40.4883 41.6893C40.2892 41.5383 39.4379 41.4874 39.6622 40.9764C39.7921 40.6812 40.4881 40.8692 40.709 40.6795C40.3137 40.3792 39.7298 39.3659 40.7266 39.4706C41.3124 39.5324 41.2026 40.4185 41.7569 40.6542C41.8731 40.3304 41.6599 40.0595 41.6641 39.7186C41.925 39.7823 42.1791 39.9544 42.4297 40.1024C42.4646 40.1228 43.2615 40.5566 43.2471 40.5653C44.0591 40.453 43.4653 38.7952 44.2598 39.076C44.4069 38.6126 45.2481 37.843 44.9864 37.4491C44.663 37.6992 44.4504 38.1769 44.0645 38.2049C43.9116 37.7884 43.736 37.7194 43.6485 37.2069C43.5173 36.4373 43.8165 36.5825 44.2549 36.246C44.384 36.1468 44.5663 36.1686 44.7354 36.0155C44.8525 35.9089 44.6678 35.5939 44.8555 35.4579C45.4692 35.0149 45.3739 35.7309 45.875 35.7645C47.2804 35.8586 45.6485 35.0026 45.6827 34.534C45.7686 33.3941 47.0624 34.2377 47.7012 34.0672C47.0665 33.9085 47.3138 33.4252 47.1856 33.0223C47.0395 32.5629 46.4027 32.211 47.1055 31.7606L47.2627 31.6825C48.1115 31.2907 48.1702 31.7158 48.5225 30.8163C48.6461 30.5003 48.4221 30.142 48.9649 30.1131C49.3763 30.0916 49.3971 30.43 49.1905 30.7254C49.8548 30.5848 49.7616 31.1768 50.0167 31.5399C50.2334 31.3265 50.4728 31.0782 50.8008 31.0409C50.0824 30.053 51.2887 30.3379 51.1924 29.5565C51.1121 28.9072 49.9416 29.4371 50.1856 28.6903C50.58 27.4843 51.2948 29.222 51.3331 29.245C51.8461 29.5524 51.9938 28.6156 52.6661 28.535C52.6272 28.9671 52.2767 29.7619 53.0938 29.4354C53.5469 29.2538 53.5114 28.3721 54.2491 28.4422C53.8602 28.0584 53.7635 27.3809 54.5674 27.5204ZM101.09 128.406C101.207 128.15 101.348 127.989 101.664 128.083C101.852 128.139 102.211 128.322 102.166 128.549C102.072 129.019 100.996 128.636 101.124 128.371L101.09 128.406ZM214.478 118.801C215.411 118.785 216.67 118.124 217.453 118.711C217.919 119.06 217.468 120.314 217.429 120.763C217.397 121.124 217.356 121.485 217.296 121.844C217.258 122.069 217.167 122.326 217.073 122.527C216.431 123.908 215.413 123.553 214.246 124.081C213.389 124.467 212.853 124.962 211.909 125.224C210.708 125.558 209.457 124.424 209.412 123.287C209.389 122.7 209.834 122.208 210.137 121.764C210.321 121.492 210.346 121.053 210.479 120.747C210.677 120.283 211.03 119.965 211.414 119.656C212.148 119.56 213.764 118.81 214.478 118.801ZM121.605 124.474C121.602 124.472 121.6 124.473 121.598 124.47L121.604 124.466C121.604 124.468 121.604 124.472 121.605 124.474ZM197.847 112.59C198.934 112.092 199.818 112.76 200.717 113.325C200.964 113.48 201.592 113.995 201.875 113.949C202.206 113.893 202.538 113.436 202.752 113.251C203.141 112.911 203.653 112.686 204.156 112.568C205.6 112.231 206.616 113.415 207.354 114.45C207.575 114.762 207.998 115.207 208.058 115.624C208.101 115.927 207.697 116.171 207.498 116.292C206.807 116.709 205.87 116.455 205.228 116.888C204.775 117.197 205.019 117.904 204.513 118.223C202.343 119.588 199.827 117.318 198.672 115.198C197.871 114.769 196.336 113.279 197.847 112.59ZM221.719 91.3065C222.569 91.0964 223.504 91.3836 224.368 91.4393C224.811 91.4671 225.39 91.4585 225.551 92.0116C226.015 93.612 225.247 95.0363 225.067 96.6151C224.976 97.4183 225.141 98.373 224.814 99.1268C224.436 99.9982 223.209 100.573 223.264 101.624C223.35 103.271 224.983 104.473 225.221 106.16C225.29 106.654 224.771 107.013 224.479 107.344C224.168 107.693 224.094 107.974 224.112 108.446C224.138 109.095 225.133 110.097 224.641 110.699C222.951 112.766 218.638 113.201 217.649 110.171C217.336 109.207 219.351 108.122 218.132 107.257C217.626 106.895 216.982 107.053 216.411 107.124C215.448 107.244 214.644 107.306 213.772 106.811C213.21 106.493 212.774 105.903 212.949 105.223C213.044 104.856 213.314 104.513 213.306 104.127C213.283 103.067 212.367 102.204 212.328 101.123C212.291 100.085 214.059 98.4352 214.688 97.7215C215.138 96.9923 215.687 96.2316 216.444 95.7928C216.907 95.524 217.636 95.4995 218.014 95.1473C218.549 94.6468 218.601 93.8558 218.982 93.2626C219.516 92.4314 220.772 91.5383 221.719 91.3065ZM125.596 14.4637C125.785 14.3518 126.693 13.4147 126.821 14.1405C126.842 14.2612 126.324 14.8502 126.014 15.1141C126.26 14.9471 126.586 14.7435 126.77 14.6786C126.805 14.7693 126.834 14.8175 126.837 14.9305C126.881 14.9384 126.925 14.9447 126.97 14.9481C126.964 15.0284 127.003 15.1625 126.998 15.2567C127.033 15.2162 127.152 15.1584 127.203 15.1034C127.602 15.2765 127.493 15.7923 127.564 16.1512C127.642 16.5532 127.995 16.904 127.993 17.1864C127.992 17.2724 127.807 17.621 127.788 17.7997C127.766 18.0086 127.791 18.23 127.788 18.4403C127.784 18.8211 127.643 19.2137 127.96 19.4627C128.298 19.7279 128.849 19.3242 129.111 19.6024C129.433 19.9435 128.858 20.4568 128.76 20.742C128.62 21.1472 128.636 21.4466 128.945 21.6825C129.368 22.0049 129.506 21.7662 129.49 22.4403V22.5995C130.203 22.6928 130.131 22.7912 129.843 23.371C129.716 23.6266 129.4 24.4268 129.952 24.3465C129.943 24.2758 129.914 24.2699 129.92 24.1913C130.104 24.1515 130.319 24.1217 130.509 24.0663C130.666 24.4406 130.46 25.4458 130.447 25.8963C130.444 26.0231 130.357 26.1814 130.369 26.2948C130.386 26.4527 130.557 26.5306 130.557 26.6961C130.556 27.0088 130.294 27.3329 130.236 27.6376C130.118 28.2676 130.514 28.8976 130.753 29.409C131.035 30.0113 130.769 30.8313 131.373 31.3778C132.112 32.0452 132.739 31.5699 133.049 30.8085C133.24 30.8428 133.475 30.9702 133.68 30.954C134.026 30.9263 134.119 30.5391 134.332 30.4793C134.747 30.3635 134.856 30.8776 134.722 31.2508C134.819 31.2451 134.936 31.3125 135.018 31.3163C134.765 31.7898 134.858 31.8577 135.199 32.1747C135.417 32.3771 135.886 32.4935 136.033 32.6483C136.336 32.968 136.21 33.2949 136.674 33.5204C136.96 33.6593 137.327 33.6062 137.575 33.7704L137.523 33.9305V34.2499H137.575C137.707 34.2771 137.78 34.381 137.94 34.3622C137.855 34.8146 137.449 34.9574 137.475 35.5741C138.14 35.4174 137.727 35.9393 137.625 36.1229C137.425 36.4817 137.423 36.6738 137.524 37.0672C137.599 37.3559 137.846 37.7952 137.846 38.0809C137.845 38.2902 137.673 38.382 137.68 38.6004C137.685 38.7666 137.822 38.9152 137.867 39.0897C137.97 39.4829 137.803 39.761 137.838 40.1141C137.855 40.2897 138.069 40.4673 138.06 40.6336C138.047 40.8463 137.8 40.7679 137.784 40.9276C137.731 41.4564 138.204 41.8493 138.413 42.2938C138.588 42.666 138.708 43.2194 139.065 43.452C139.293 43.4153 139.87 43.2919 139.924 43.6229C139.961 43.8496 139.615 43.81 139.592 43.9813C139.559 44.2271 139.687 44.2062 139.755 44.4208C139.948 45.0318 140.164 45.6844 140.288 46.3358C140.396 46.8976 140.363 47.5307 140.184 48.077C140.034 48.5327 139.119 49.5067 139.81 49.9413L139.863 49.995C139.856 50.2936 139.971 50.6086 140.212 50.7792C140.454 50.3972 140.099 50.1948 140.025 49.8397C140.325 50.0232 140.522 49.7258 140.816 49.8817C140.58 50.2597 140.883 50.6237 140.916 51.0086C140.912 51.0255 140.854 51.5197 140.865 51.4969C140.793 51.6432 140.563 51.711 140.495 51.8563C140.106 52.6905 140.993 53.4644 141.594 53.8797C141.905 54.0944 142.179 54.2818 142.467 54.5165C142.637 54.6554 142.713 54.8574 142.961 54.8368C143.134 54.822 143.282 54.4761 143.406 54.492C143.741 54.5368 143.732 55.196 144.052 55.4237C144.319 55.6135 144.766 55.717 145.083 55.7352C145.109 55.5692 145.064 55.3692 144.972 55.204C145.446 54.987 145.587 56.607 145.555 56.9627L145.546 57.0936C145.617 57.2617 145.901 57.7556 146.124 57.7733C146.513 57.8037 146.167 57.4261 146.378 57.2499C147.041 56.6954 146.806 58.1093 147.064 58.2186C147.202 58.2759 147.303 58.0121 147.449 58.035C147.627 58.0634 147.646 58.2227 147.806 58.2752C147.939 58.3189 148.387 58.3391 148.483 58.4676C148.667 58.7142 148.359 58.8265 148.419 59.0594C148.484 59.3083 148.872 59.6683 149.123 59.6415C149.062 58.9015 149.371 59.341 149.77 59.368C149.859 59.8139 150.362 59.7917 150.266 60.2167C150.516 60.2441 150.498 60.4033 150.603 60.5585C150.653 60.6334 150.585 60.8104 150.633 60.9002C150.693 61.0118 150.896 61.022 150.949 61.1571C151.251 61.9241 150.489 61.2609 150.185 61.3133C149.578 61.4182 149.933 62.1877 150.139 62.4647C150.469 62.9075 150.965 62.9987 151.339 63.3778L151.437 63.5243C151.617 63.9249 152.082 63.9635 152.067 64.4598C152.063 64.6044 151.849 64.6295 151.875 64.8397C151.899 65.0346 152.153 65.1239 152.214 65.2899C152.331 65.6087 152.064 65.8981 152.23 66.1756C152.315 66.318 152.64 66.3148 152.694 66.4286C152.774 66.5936 152.619 66.7056 152.613 66.8651C152.592 67.5389 152.481 68.1839 152.727 68.827C152.981 69.4942 153.128 70.0792 153.211 70.7899C153.318 70.6223 153.457 70.4059 153.646 70.2909C154.045 70.5685 153.921 71.3449 154.529 71.4774H154.579C154.634 71.0462 154.272 70.73 154.282 70.3221C154.292 69.9368 154.708 69.3621 155.047 69.579C155.361 69.7803 155.372 70.5413 155.609 70.8397C155.84 71.1304 156.333 71.5934 156.684 71.6698C156.694 71.4271 156.73 71.1295 156.69 70.8876C156.656 70.6722 156.362 70.2662 156.489 70.0311C156.716 69.6146 156.805 70.4205 156.895 70.5477C157.054 70.775 157.536 70.8934 157.577 71.2293C157.601 71.4265 157.381 71.4048 157.373 71.536C157.357 71.8059 157.439 71.7651 157.497 71.993C157.57 72.2787 157.671 72.5578 157.671 72.8631C157.671 73.5296 157.377 74.1181 157.377 74.8163L157.426 74.9139C157.499 75.1073 157.513 75.2915 157.331 75.4002C157.458 75.6538 157.759 76.2576 157.292 76.3514C157.639 76.5521 157.796 76.4268 158.015 76.3407C158.194 76.27 158.017 76.1684 158.367 76.201C158.441 76.2085 158.872 76.3842 158.926 76.4403C159.181 76.7073 159.888 78.2955 159.05 78.1112C159.217 78.5894 159.838 78.9698 160.179 79.3065C160.26 78.1611 161.372 79.9381 161.501 80.3622C161.77 81.2475 161.98 82.3644 162.925 82.7206L163.023 82.7694C163.691 83.2799 163.217 83.8009 163.365 84.4852C163.549 85.3273 164.505 85.0194 164.816 85.6209C165.026 86.0257 164.666 86.1583 164.543 86.4989C164.472 86.6955 164.477 87.0953 164.495 87.3104C164.54 87.8567 165.016 88.4209 165.438 88.7547C164.881 89.4246 164.728 90.0593 164.741 90.9188L164.691 91.1151C164.691 91.4538 164.659 91.8103 164.692 92.1473C164.704 92.2661 164.801 92.4547 164.785 92.5633C164.75 92.8111 164.611 92.8432 164.53 93.0809C164.474 93.2477 164.534 93.4196 164.495 93.5887C164.48 93.6581 164.526 93.7656 164.499 93.8299C164.45 93.947 164.277 93.9625 164.247 94.0458C164.121 94.3979 164.25 94.6516 164.349 95.0194C164.446 95.3832 164.613 95.7271 164.718 96.0936C164.774 96.2897 164.778 96.5143 164.777 96.7381H164.733L164.68 96.7372C164.545 96.7244 164.38 96.719 164.234 96.787C164.159 96.8237 164.097 96.8774 164.047 96.9198L163.958 96.9803L163.826 96.9784C163.681 96.9765 163.516 96.9729 163.353 97.0243C163.312 97.0373 163.277 97.0561 163.23 97.0819C163.169 97.0875 163.144 97.0852 163.126 97.076C163.115 97.0704 163.097 97.0555 163.078 97.0409C163.023 96.9949 162.938 96.9267 162.806 96.91C162.801 96.9095 162.614 96.8924 162.5 96.9178C162.44 96.9363 162.397 96.9641 162.377 96.9842C162.348 96.9916 162.327 96.986 162.303 96.9823L162.228 96.9803C162.187 96.9803 162.137 96.9834 162.086 96.9872C162.02 96.9945 161.899 97 161.855 96.9471C161.819 96.8606 161.756 96.7018 161.562 96.6502C161.245 96.5508 161.085 96.84 161.017 96.9618C161.004 96.9837 160.991 97.0059 160.969 97.037C160.945 97.0443 160.849 97.0413 160.773 97.0467C160.621 97.0595 160.501 97.1127 160.372 97.2469C160.339 97.236 160.296 97.2231 160.248 97.2176C160.199 97.212 160.147 97.2119 160.094 97.2157L160.027 97.2176H160.019C159.912 97.2176 159.823 97.2415 159.744 97.2635C159.706 97.2727 159.667 97.2834 159.63 97.2889C159.468 97.3036 159.165 97.3337 159.06 97.5545C158.938 97.8142 159.201 98.2269 159.206 98.2342C159.236 98.2766 159.273 98.3191 159.31 98.3631C159.333 98.3889 159.369 98.4307 159.391 98.4637C159.374 98.4784 159.357 98.4954 159.341 98.5155C159.271 98.6001 159.268 98.6927 159.282 98.7167L159.232 98.7499C159.159 98.794 158.985 98.8971 158.998 99.1493C159.002 99.2337 159.023 99.3015 159.047 99.3602H158.825L158.726 99.3915L158.619 99.4139L158.551 99.4305C158.479 99.4525 158.417 99.4754 158.332 99.5506L158.303 99.5799C158.222 99.4603 158.093 99.3915 157.947 99.3915H157.929C157.728 99.3915 157.62 99.4935 157.55 99.5653C157.546 99.5725 157.512 99.5653 157.49 99.5653C157.426 99.5617 157.349 99.5563 157.261 99.5819C157.116 99.6241 157.034 99.7347 156.979 99.8065C156.966 99.8245 156.953 99.8427 156.939 99.8573C156.832 99.9677 156.773 100.098 156.725 100.225C156.701 100.29 156.699 100.351 156.695 100.385L156.648 100.423C156.622 100.446 156.612 100.455 156.525 100.45C156.516 100.43 156.505 100.401 156.49 100.366C156.433 100.232 156.436 100.077 156.439 99.8963L156.441 99.7567C156.441 99.6353 156.441 99.5294 156.325 99.3749C156.287 99.3271 156.253 99.2758 156.22 99.2245C156.189 99.1767 156.157 99.1285 156.099 99.0477C156.036 98.9576 155.942 98.8227 155.708 98.8153C155.688 98.8116 155.646 98.8177 155.616 98.8231C155.602 98.7404 155.566 98.6826 155.515 98.6053C155.417 98.4583 155.325 98.3201 155.171 98.1913C155.066 98.1031 154.948 98.0716 154.853 98.0458C154.821 98.0367 154.79 98.0297 154.74 97.995C154.718 97.9289 154.686 97.8273 154.591 97.7684C154.422 97.6636 154.21 97.7327 154.052 97.7879C153.953 97.8192 153.862 97.8494 153.765 97.8934C153.676 97.932 153.578 97.9584 153.486 97.9823C153.413 98.0013 153.328 98.0024 153.236 97.9979C153.135 97.8871 153.021 97.7825 152.865 97.7586C152.858 97.7471 152.845 97.7089 152.836 97.6834C152.812 97.6062 152.781 97.51 152.698 97.4217C152.612 97.3257 152.335 97.0434 152.037 97.286L151.977 97.284C151.91 97.2859 151.826 97.2786 151.735 97.3006C151.699 97.308 151.664 97.3157 151.627 97.3211C151.542 97.3358 151.447 97.3524 151.34 97.3983C151.307 97.413 151.273 97.4315 151.242 97.4481C151.213 97.4647 151.168 97.4883 151.17 97.492C151.049 97.435 150.791 97.3613 150.583 97.4422C150.456 97.492 150.385 97.5881 150.334 97.6581C150.325 97.6709 150.31 97.6897 150.305 97.6903V97.6854C150.257 97.6724 150.181 97.6609 150.095 97.659C150.032 97.6645 149.986 97.678 149.937 97.6981C149.926 97.6871 149.916 97.6759 149.907 97.6649C149.885 97.6391 149.861 97.6129 149.826 97.578C149.69 97.442 149.533 97.286 149.21 97.2821C149.127 97.2785 149.017 97.264 148.921 97.3153C148.833 97.3575 148.775 97.4403 148.698 97.5633C148.66 97.6185 148.637 97.6819 148.617 97.7372C148.617 97.7389 148.615 97.7405 148.615 97.744C148.523 97.7329 148.43 97.7273 148.313 97.7254C148.231 97.7273 148.095 97.7168 147.98 97.8231C147.934 97.8671 147.902 97.9189 147.856 97.9959C147.833 98.0253 147.81 98.0627 147.786 98.0995C147.755 98.1472 147.698 98.2376 147.678 98.2508C147.661 98.2525 147.622 98.2488 147.593 98.2469C147.517 98.2396 147.408 98.228 147.3 98.2684C147.129 98.3291 147.049 98.4652 146.996 98.5555L146.912 98.6834C146.879 98.7275 146.845 98.7694 146.819 98.8153C146.808 98.8318 146.801 98.8394 146.772 98.8651L146.715 98.9188C146.682 98.9536 146.65 98.9978 146.619 99.0418C146.608 99.0574 146.595 99.0735 146.584 99.0877C136.309 98.5231 125.899 98.1156 115.632 97.8739L116.161 84.2391L115.926 84.2303L115.928 83.994C111.893 83.9721 107.824 84.0155 103.769 84.0262L104.815 39.7792C105.313 40.2368 105.894 40.6313 106.564 40.8055C106.904 40.8941 107.24 40.8999 107.562 41.0038C107.922 41.1201 108.221 41.3991 108.639 41.3778H108.745C108.943 41.3256 109.535 41.7833 109.655 41.9754C109.808 42.22 109.688 42.6768 109.809 42.9735C109.984 43.4055 110.296 43.6387 110.664 43.8251C111.047 44.0191 111.395 44.3043 111.79 44.4764C112.552 44.8086 113.29 45.417 114.146 45.4208C115.057 45.4247 115.874 45.1381 116.618 44.5838C117.087 44.2347 117.32 43.7554 117.405 43.1825C117.493 42.5918 117.643 42.3323 118.054 41.8563L118.107 41.8036C118.18 41.3643 118.865 40.9707 119.076 40.5252C119.257 40.1459 119.157 39.772 119.288 39.3583C119.436 38.8929 119.938 38.5575 119.966 38.0799C119.976 37.897 119.827 37.6874 119.848 37.4549C119.867 37.2364 119.998 36.9572 120.075 36.7499L119.969 36.6971C119.954 35.4036 121.242 34.4448 121.204 33.2391C121.186 32.663 120.953 32.1123 120.927 31.4979C120.898 30.8027 121.448 30.2817 121.352 29.6219L121.299 29.5692C121.351 29.1903 121.091 28.9262 120.93 28.6112C120.712 28.1852 120.689 28.0345 120.833 27.5594C120.946 27.187 121.424 25.6604 121.876 26.3758C121.895 26.1211 121.784 25.8766 121.774 25.6854C121.764 25.4796 121.894 25.2314 121.777 24.994L121.725 24.9403C121.774 24.4294 121.478 24.1802 121.683 23.7733C121.838 23.465 122.412 22.878 122.683 22.7108C122.767 22.8719 122.898 23.0034 123.047 23.0643C123.099 22.8125 122.987 22.5756 122.898 22.3543C122.994 22.355 123.155 22.2823 123.24 22.284C123.167 22.2069 122.633 22.0495 122.551 22.035C122.198 21.9739 122.128 22.1247 121.719 22.1708C121.596 21.8647 122.426 20.4497 122.628 20.1004C122.686 19.7956 122.894 19.4046 123.106 19.1874C123.256 19.3948 123.2 19.7196 123.424 19.9393C123.631 19.8103 123.553 19.844 123.794 19.829C123.572 19.1778 123.43 19.1531 123.772 18.451C124.021 17.9382 124.171 17.4185 124.277 16.8553L124.171 16.9618C124.229 16.4437 124.534 16.0066 124.596 15.4501C124.686 14.6298 125.01 14.8076 125.596 14.4637ZM2.18853 87.9657C2.34476 87.3333 2.54398 87.7054 2.61626 88.0926C2.63483 88.048 2.71831 87.9623 2.74614 87.909C2.86103 88.0183 2.86048 88.1749 2.95904 88.2821C3.0254 88.3539 3.17855 88.3213 3.24517 88.4022C3.32255 88.4968 3.31665 88.6395 3.39165 88.7313C3.47826 88.8371 3.68938 88.9187 3.74321 89.0389C3.84775 89.2748 3.69639 89.9629 3.69634 90.3163L3.6104 90.3592C3.60437 90.428 3.56947 90.5059 3.54986 90.5711C3.10403 90.6658 3.07919 90.0338 2.919 89.7538C2.74064 89.4416 2.64522 89.1014 2.46978 88.8075C2.37477 88.6484 2.27401 88.7375 2.1856 88.4852C2.14848 88.3788 2.16478 88.0622 2.18853 87.9657ZM0.200246 87.7704C0.557425 87.7056 0.751203 88.9169 0.889699 89.1854C1.009 89.4163 1.09257 89.6633 1.20415 89.8954C1.30124 90.0971 1.5752 90.3175 1.58208 90.5321L1.4522 90.576C1.10115 90.36 -0.568593 87.9121 0.200246 87.7704ZM166.459 83.0467C166.752 83.0509 166.643 83.3207 166.634 83.5223C166.625 83.7194 166.61 83.9289 166.701 84.1073C166.797 84.2927 166.966 84.3413 166.942 84.5858C166.909 84.9344 166.479 85.3008 166.27 85.5633C165.788 86.1682 165.181 86.8548 165.178 87.6649L165.122 87.4139C164.848 87.1144 164.8 86.7924 164.897 86.4042C164.96 86.1475 165.224 86.0703 165.314 85.8241C165.369 85.672 165.299 85.5421 165.401 85.3963C165.32 85.3289 165.235 85.265 165.15 85.203C165.439 84.9513 165.947 84.7863 166.179 84.4686C166.487 84.0438 166.103 83.7734 165.884 83.4383C165.948 83.3235 166.328 83.045 166.459 83.0467ZM79.9581 13.8299C80.1512 13.9916 80.3235 14.5064 80.1514 14.6649C80.3343 14.8636 80.2608 15.1067 80.2823 15.367C80.3006 15.5898 80.3687 16.0354 80.5528 16.1551C80.8763 16.365 80.9139 16.053 81.1895 15.9344C81.4106 15.8398 81.9936 15.967 81.5831 15.5165C81.9433 15.2849 82.3942 16.0943 82.417 16.4002V16.4891C82.5969 16.7163 82.7305 17.0614 82.9932 17.1571C83.2577 17.253 83.537 17.0323 83.793 17.0838C83.7348 17.1558 83.7148 17.2622 83.5967 17.326C83.7771 17.3381 83.9639 17.3304 84.1446 17.3387C84.2279 17.5072 84.4184 17.4905 84.584 17.4256C84.52 17.5242 84.5096 17.6427 84.4688 17.7303C84.7356 17.5068 85.1472 17.5871 85.4395 17.4227C85.7353 17.2568 86.0584 17.1095 86.4073 17.3329C86.1961 17.6292 85.7227 17.7455 86.2217 18.0311C86.5326 18.2088 86.7681 18.0325 86.9981 17.8368C87.1055 18.0139 87.323 17.9561 87.4004 18.0399C87.4993 18.1472 87.5082 18.3734 87.5752 18.4461C87.9319 18.8325 87.8814 18.0967 88.2432 18.4901C88.6898 18.8683 89.1097 18.8528 89.5782 18.5458C89.8403 18.3737 89.934 18.1935 90.2198 18.2918C90.3021 18.3218 90.5516 18.7155 90.6358 18.8006C90.7202 18.8864 90.7494 19.0084 90.8692 19.1063C90.947 19.1689 91.1106 19.0804 91.1973 19.1405C91.298 19.2105 91.3098 19.4355 91.4434 19.5165C91.5653 19.5898 91.682 19.5131 91.8018 19.5575C91.9907 19.6277 92.216 19.8029 92.4346 19.7801C93.0132 19.7196 92.4455 19.5545 92.4522 19.4032C92.4616 19.215 92.8011 18.9584 93.0469 18.9081C93.3325 18.85 93.5504 19.1835 93.8379 18.8348C93.9435 19.0074 94.0752 19.0774 94.1592 18.8905V18.8456C93.5077 18.3623 94.278 18.2156 94.6475 18.0897C94.975 17.9782 95.0356 17.9908 95.2735 17.7352C95.3153 17.6891 95.5426 17.102 95.7608 17.4852C95.8821 17.6986 95.4072 17.9837 95.3155 18.1317C95.1445 18.4077 95.1921 18.5558 95.0489 18.7567C94.846 19.0416 93.9233 19.5279 94.7471 19.8456C94.9669 19.527 95.7282 18.959 96.1045 18.9725C96.0199 19.0777 95.6424 19.3986 95.712 19.5585C95.8225 19.8119 96.1502 19.414 96.209 19.745C96.2453 19.9499 95.8505 20.1285 95.8477 20.3592C95.8458 20.5536 96.1373 20.5334 96.0879 20.8504C96.4789 20.4797 96.2462 20.5318 96.7383 20.536C97.0223 20.5385 97.2852 20.5964 97.4893 20.3583C97.5815 20.25 97.7267 19.7045 97.6319 19.5877C97.448 19.363 96.6852 19.8775 96.7081 19.1961C96.9994 19.1423 97.1316 18.9417 97.3614 18.7977C97.4432 18.7465 97.5747 18.7908 97.6758 18.7088C97.7561 18.6436 97.7956 18.4169 97.8936 18.3866C98.139 18.3106 97.9683 18.3844 98.1544 18.4422C97.948 18.3782 98.5006 18.7921 98.3741 18.6571C98.3686 18.6512 98.5416 18.6988 98.5997 18.7557C98.6482 18.8041 98.6985 19.0374 98.7403 19.1122V19.1571C98.7497 19.6057 99.181 20.4633 99.4844 19.6444C99.4233 19.6203 99.3493 19.5631 99.2794 19.5497C99.2646 19.514 99.2646 19.4776 99.2794 19.4413C99.628 19.3861 100.059 19.535 100.233 19.8905C100.44 20.3125 99.9567 20.5447 99.7295 20.8446C99.4855 21.1669 99.3291 21.5201 99.0958 21.784C99.0576 21.8273 98.8667 21.7311 98.8243 21.7879C98.7524 21.8868 98.8696 22.0794 98.8262 22.1346C98.6828 22.3114 98.6632 22.3404 98.4024 22.1385C98.3799 22.3262 98.2628 22.3964 98.0772 22.3651C98.1749 22.75 98.5573 22.5914 98.709 22.8114C98.9575 23.1721 98.4112 23.1785 98.1622 23.1239C98.5503 23.3971 98.536 23.496 98.2491 23.8817C98.1455 24.0209 98.0451 24.1359 97.9376 24.2655C97.9471 24.2531 97.634 24.5641 97.6856 24.5418C97.2263 24.74 97.3934 24.4998 97.5508 24.1512C97.6492 23.933 97.7437 23.5356 97.584 23.3465C97.4596 23.5485 97.4392 24.2581 97.0469 23.9735C97.038 24.1434 96.8751 24.3828 96.6592 24.2752C96.5076 24.1995 96.5507 23.9674 96.5538 23.7948C96.2931 23.9873 96.1837 24.3115 96.1846 24.6268C96.118 24.529 96.0637 24.3392 95.9346 24.2518C95.9229 24.3603 95.8317 24.4453 95.8057 24.5262C95.6589 24.3236 95.411 24.3623 95.3555 24.6258C95.3178 24.805 95.5566 25.0154 95.5674 25.1893C95.2961 25.1505 95.2833 25.2333 95.1885 25.3749C95.2483 25.2859 95.1393 25.8521 95.1368 25.829C95.1462 25.9168 95.2772 26.1758 95.3155 26.2733C95.4113 26.518 95.2592 26.7718 95.6192 26.535C95.805 26.4121 96.2646 25.5383 96.084 26.3963C96.0442 26.5856 95.7341 27.3305 95.5821 27.3856L95.5528 27.5995C95.5962 27.9815 95.2925 28.262 95.335 28.6551C94.9041 28.6237 94.7551 29.0676 94.5411 29.3661C94.2828 29.7259 94.0732 29.7427 93.8292 30.079C93.7317 30.2133 93.7101 30.4076 93.6368 30.537C93.5538 30.6837 93.43 30.7799 93.3448 30.9266C93.1765 31.217 93.0066 31.6125 93.1446 31.9637C93.3449 32.4727 93.7042 32.3245 94.0645 32.4901C94.3538 32.6232 94.6572 32.8858 94.9346 33.1004C95.3027 33.3853 95.543 33.7499 95.9776 33.9559C96.4323 34.1713 96.6196 34.268 96.9258 34.7147C97.4302 35.4498 98.7297 35.7092 98.8594 36.6151C99.1866 36.3119 99.2282 36.6018 99.5147 36.5917C99.7738 36.5823 99.857 36.3441 100.181 36.4823H100.287C100.377 36.6345 100.509 36.786 100.659 36.9081H100.713C100.94 37.1301 101.373 37.3466 101.627 37.493C101.952 37.681 102.292 37.8361 102.639 37.9715C103.48 38.3006 103.703 38.9085 104.349 39.5594L103.298 84.0252C91.0746 84.0579 78.8121 84.1854 66.6495 84.5008L64.461 32.3778C64.685 32.5004 64.8784 32.6461 64.9522 32.8397C65.0448 33.0824 65.2231 33.7344 65.3204 33.0292C65.3531 32.792 65.2659 32.1866 65.2022 31.9696C65.4172 31.9363 65.576 32.0444 65.7618 32.1249C65.8017 32.1427 65.9051 32.2582 65.9737 32.2918C66.0589 32.3335 66.1957 32.2952 66.2852 32.3553C66.4436 32.462 66.555 32.7673 66.6368 32.9393C66.6748 33.0195 66.8188 33.3685 66.918 33.4247C66.9284 33.3931 66.9538 33.326 66.9698 33.2879C67.5813 33.3995 66.8817 32.5874 67.0049 32.2098C67.108 31.8953 67.1417 31.9422 67.4766 31.9247C67.693 31.9135 68.0573 32.0262 67.9698 31.6825C67.3429 31.663 67.1053 31.4835 66.752 30.9413C66.9261 30.7325 67.2412 30.8093 67.4356 30.5321C67.1002 30.3763 66.7543 30.6653 66.3829 30.4784C66.1996 30.3861 66.0695 30.2175 65.9141 30.0838C65.6699 29.8741 65.622 30.028 65.669 29.6922C65.6775 29.6311 65.8596 29.2975 65.8985 29.2157C65.9912 29.0201 66.0541 29.0295 66.1055 28.7792C66.1775 28.4296 66.1786 28.0449 66.6309 28.369C66.7569 28.0448 67.1802 28.2647 67.2842 27.8006C67.3163 27.6576 67.1916 27.5599 67.2491 27.3885C67.2956 27.2508 67.5012 27.0787 67.6085 26.9803L67.4864 26.7762C67.4877 26.4073 67.4282 25.4738 68.0196 25.5477C68.3551 25.5898 68.2244 25.8817 68.6319 25.6727C68.7144 25.6301 68.8943 25.4624 68.9571 25.3944C69.0104 25.3364 69.1413 25.1212 69.167 25.0985C69.2999 24.9826 69.7557 24.9094 69.7813 24.7743C69.8048 24.6442 69.2871 24.2817 69.1934 24.1678C69.0176 23.9528 68.9985 23.9011 68.9981 23.5379C68.9979 23.2997 68.9217 22.9582 69.2247 22.8973C69.5206 23.4104 69.8751 22.6729 69.9356 22.4286C69.9679 22.2981 69.9757 22.0697 70.0245 21.9501C70.0942 21.7794 70.3163 21.8626 70.2579 21.5467C70.5649 21.6308 70.9486 22.0035 71.002 21.4432C71.0122 21.3358 70.904 21.3029 70.8995 21.2196C70.8946 21.1295 70.9527 21.0394 70.9522 20.9754C70.9503 20.7953 70.9887 20.6551 70.959 20.4833V20.4422C71.1367 20.4171 71.3297 20.4505 71.4903 20.5233C71.7943 20.4778 71.9843 20.954 71.9444 21.2049C72.0008 21.1873 72.0576 21.1936 72.1085 21.1805C72.1465 21.3207 72.2153 21.4591 72.3174 21.5741C72.4197 21.5198 72.5334 21.4258 72.6221 21.3758C72.5628 21.2441 72.4473 21.1318 72.3184 21.0633C72.5834 21.1176 72.7655 20.9428 72.4825 20.7694C72.5858 20.609 72.5876 20.5545 72.4366 20.4862C72.3911 20.6149 72.2903 20.6986 72.1417 20.7245C71.9205 20.2505 72.6367 20.1827 72.9151 20.2743C72.87 20.068 72.7311 18.8401 73.1651 19.367C73.4033 19.1046 73.5818 19.471 73.7794 19.5917C74.0429 19.3414 73.9717 18.9542 74.2686 18.7381C74.6862 19.0532 74.1636 19.7187 74.9463 19.871C75.33 19.9452 76.2777 20.0056 76.4756 19.6239L76.5899 19.6463C77.1103 19.2133 77.1707 19.7826 77.7032 19.7801C78.1287 19.7778 78.4333 19.1049 78.8389 19.4667C79.0076 19.1187 79.1401 19.4728 79.3497 19.3788C79.4739 19.3228 79.7458 19.0607 79.8467 18.9803C80.1316 18.7537 80.5043 18.6192 80.5889 18.1786C80.6717 17.7473 80.4946 17.4717 80.2295 17.2918C80.0096 17.1426 79.8023 17.1848 79.7637 16.8993C79.7552 16.8359 79.948 16.5433 79.9258 16.3553V16.3104C79.5679 16.0344 79.3277 15.9056 78.8487 16.077C78.4762 16.2105 78.1944 16.4836 77.752 16.4383C77.7712 16.3062 77.7233 16.1822 77.7754 16.0506C77.5413 16.0167 77.0138 15.9194 77.335 15.6043C77.0242 15.5553 76.6048 15.1909 76.6846 14.8475C76.7098 14.8409 76.8178 14.8778 76.8399 14.8836C76.8555 14.8482 76.8569 14.7802 76.8975 14.7645C76.9919 14.9291 77.0813 14.9514 77.2403 14.9608C77.2256 14.8284 77.2898 14.6511 77.2979 14.535C77.5711 14.7955 77.9487 14.8635 77.9766 15.3172C78.0014 15.2935 78.0289 15.2734 78.0596 15.2577C78.1693 15.4554 78.0611 15.8146 78.3174 15.8602C78.2984 15.7497 78.33 15.5886 78.3487 15.4862C78.4043 15.1817 78.4389 15.4114 78.3643 15.1073C78.3078 14.8775 78.0484 14.6366 78.1055 14.4413C78.3392 14.5285 78.5888 14.9298 78.7266 15.1102C78.7804 14.845 78.6928 14.6552 78.9932 14.4969C79.1422 14.7195 79.1185 15.0771 79.2491 15.2401C79.2694 15.1726 79.3196 15.1061 79.3448 15.0409C79.4797 15.2012 79.5858 15.417 79.7969 15.453C80.0764 15.0421 79.7451 14.8949 79.6172 14.5272C79.8732 14.4329 79.7726 14.2385 79.6172 14.0829C79.761 14.0474 79.8746 13.9633 79.9581 13.8299ZM111.098 42.0887C111.511 42.2268 111.265 42.7901 110.911 42.5008L110.799 42.4256C110.925 42.3472 111.036 42.2228 111.098 42.0887ZM110.593 39.5223C110.919 39.4125 112.423 39.0867 112.141 39.8963C111.667 40.0312 111.557 39.5852 111.266 39.994C110.97 40.4085 111.206 40.6054 110.615 40.62C110.559 40.8463 110.215 40.7667 110.007 40.7665H110.157C109.91 40.6277 109.79 40.6504 109.59 40.8485C109.341 40.1966 110.047 39.7061 110.593 39.5223ZM99.9161 35.6024C100.311 35.1042 100.645 35.5478 100.584 36.0555L100.547 36.1307C100.203 36.2255 100.118 35.8014 99.9161 35.6024ZM98.3585 34.7713C98.752 34.8437 98.3762 35.3044 98.21 35.452L98.2852 35.3768C97.8014 35.3465 97.9878 34.7038 98.3585 34.7713ZM98.4473 26.4022C98.652 26.335 99.0288 26.3152 99.2266 26.4403C98.9802 26.6827 99.1184 26.7609 99.1182 27.0145C99.4503 27.1893 99.7864 26.4354 100.022 26.8651C100.324 27.4194 99.4144 27.3132 99.2686 27.534C99.0331 27.8917 99.5248 27.8748 99.4981 28.0545C99.4625 28.2929 99.0252 28.1312 98.9786 28.3817C98.9336 28.6237 99.2149 28.6051 99.379 28.6249C99.4516 28.6334 99.5311 28.5292 99.626 28.5409C99.6638 28.5463 99.8288 28.7146 99.8711 28.742C99.888 28.6198 99.9665 28.515 100.017 28.4051C100.318 28.4729 100.175 29.0567 99.9805 29.1786C99.7701 29.3097 99.689 29.1691 99.5001 29.119C99.3386 29.0762 99.2497 29.0732 99.0762 29.0711C98.8328 29.0684 98.537 29.0906 98.2383 29.0165C97.8595 28.9224 97.751 28.7733 97.3428 28.8944L97.2676 28.8192C97.2507 28.5614 97.463 28.6301 97.5889 28.4598C97.7488 28.243 97.6372 28.3149 97.6465 28.0858C97.659 27.7784 97.8746 27.3188 97.6075 27.0868C97.8555 26.656 99.0673 27.3247 98.4473 26.4022ZM96.9278 26.9725C96.7522 26.8001 96.4372 26.172 96.9815 26.3338C97.1719 26.3906 97.2164 26.5355 97.1924 26.7157C97.1553 26.9949 97.0495 26.8679 96.8907 27.0477L96.9278 26.9725ZM70.0479 14.8768C70.3708 14.7962 70.2134 15.2289 70.5167 15.3182C70.7568 15.3886 70.9652 15.1104 70.9258 15.4725C70.914 15.5813 70.6706 15.6701 70.8233 15.8104C70.9611 15.9361 71.1829 15.6907 71.2911 15.6297C71.374 15.9979 71.3774 15.9222 71.6876 15.7606C71.8085 15.698 71.9601 15.7278 72.0713 15.6815C72.1994 15.6279 72.2798 15.5073 72.4258 15.4637C72.5903 15.4148 72.6225 15.5285 72.7266 15.5331C73.016 15.5451 72.8099 15.5597 73.0333 15.368C73.0879 15.3212 73.3323 15.1529 73.4063 15.1629C73.5394 15.1827 73.5653 15.3707 73.6924 15.4374C73.6583 15.1312 74.0065 15.0629 74.2706 14.9979C74.3373 15.0919 74.3425 15.2052 74.3301 15.3211C74.6245 15.2688 74.6537 15.4754 74.8301 15.6385C75.052 15.8436 75.1219 15.7456 75.0567 16.0506C75.0316 16.1679 74.956 16.2199 74.9581 16.3641C74.9598 16.4833 75.0675 16.5604 75.0372 16.6883C74.9595 17.0118 74.6052 16.9074 74.4356 17.0174C74.2359 17.1474 74.0661 17.4152 73.8516 17.5604C73.6139 17.7212 73.4399 17.9215 73.1973 18.0663C72.9778 18.1974 72.8732 18.3475 72.6495 18.2831C72.4321 18.2203 72.1942 17.9939 71.9815 17.9051C71.6876 17.7826 71.4662 17.6753 71.2364 17.4627C71.0397 17.2809 70.8083 17.1899 70.6124 17.0184L70.4346 16.9881C70.4595 16.7819 70.3786 16.7707 70.3155 16.6463C70.2478 16.5123 70.2107 16.5071 70.1963 16.3065C70.1818 16.1042 70.1233 16.0472 70.0762 15.8895C70.0342 15.7483 69.9295 15.6625 70.0616 15.5252C69.8762 15.3621 69.68 14.9691 70.0479 14.8768ZM69.4688 15.6786C69.6949 15.5583 69.5628 15.6582 69.7081 15.8016C69.7889 15.8813 69.9727 15.997 70.0215 16.0936C70.0744 16.1992 69.985 16.3951 70.0176 16.5116C70.0669 16.6871 70.2836 17.0187 70.4053 17.1659L70.4044 17.1073C70.5047 17.2723 71.3831 17.5792 70.9551 17.8182C70.7488 17.9332 70.1734 17.7576 69.9522 17.7235C69.5615 17.6636 69.1886 17.8118 68.7999 17.8514C68.6651 17.8652 68.272 17.9045 68.2305 17.7557C68.2406 17.753 68.487 17.3149 68.5303 17.2889C68.7124 17.1854 68.9704 17.5458 69.0381 17.1376C69.0562 17.0286 68.9269 16.9479 68.9454 16.8387C68.9632 16.7351 69.1098 16.6152 69.1729 16.5399C69.0483 16.4609 68.8819 16.5349 68.8272 16.3944C68.7622 16.2267 68.9527 16.1289 69.0528 16.0516C69.1703 15.9606 69.3603 15.7362 69.4688 15.6786ZM124.87 13.3124C125.011 13.26 125.445 13.5999 125.498 13.7137C125.339 13.8499 125.073 13.9247 124.886 13.9901L124.855 13.9588C124.615 13.9012 124.674 13.3858 124.87 13.3124ZM125.223 13.2225C125.395 13.0615 125.651 13.1907 125.544 13.4217C125.425 13.677 125.225 13.5189 125.253 13.284L125.223 13.2225ZM125.499 11.659C125.536 11.6419 125.566 11.6203 125.594 11.5985C125.603 11.5979 125.612 11.5988 125.621 11.5975L125.499 11.659ZM125.375 11.1659C125.731 11.0934 125.825 11.4135 125.594 11.5985C125.29 11.6191 124.943 11.2542 125.375 11.1659ZM124.855 11.1991C124.586 11.015 124.705 10.6412 125.039 10.7684C125.377 10.8978 125.011 11.1867 124.824 11.2909L124.855 11.1991ZM127.28 7.82017C127.328 7.60956 128.003 7.62158 128.065 7.85142C127.807 7.90155 127.642 7.97645 127.369 7.97837L127.4 7.8563C127.356 7.84296 127.331 7.81995 127.28 7.82017ZM125.073 7.14732C125.089 6.94359 125.865 6.92757 125.864 7.24497C125.715 7.29073 125.537 7.27331 125.376 7.27329L125.438 7.1815C125.325 7.13859 125.197 7.14841 125.073 7.14732Z" fill="#615236"/>
</svg>
