<svg width="300" height="220" viewBox="0 0 300 220" fill="none" xmlns="http://www.w3.org/2000/svg">
<path fill-rule="evenodd" clip-rule="evenodd" d="M195.629 215.371C199.112 215.371 199.478 215.958 197.828 217.721C196.179 219.482 195.079 219.482 193.43 217.721C191.78 215.958 192.147 215.371 195.629 215.371ZM245.007 209.235C240.514 212.189 237.705 211.667 239.951 208.366C240.513 207.324 242.947 206.455 245.194 206.455H249.125L245.007 209.235ZM130.787 201.734C135.811 201.734 136.888 202.464 136.888 205.93C136.888 208.302 136.17 210.126 135.273 210.126C131.863 210.125 121.279 203.923 122.894 202.829C123.791 202.282 127.379 201.734 130.787 201.734ZM158.219 2.36112C159.126 0.906557 160.032 0.543634 160.032 1.63456C160.033 2.90698 161.302 3.63366 162.934 3.45194C164.747 3.45194 166.198 4.90672 166.561 7.45194C166.923 9.81528 166.561 11.2702 165.655 10.7254C163.479 9.27085 164.748 18.7246 167.105 21.0887C168.193 22.1795 169.1 24.9069 169.1 27.0887C169.1 29.2705 170.369 31.9985 171.82 33.2713C173.27 34.5437 173.995 36.1795 173.633 36.907C173.163 37.6477 173.887 40.0839 175.095 42.8582C175.668 42.8115 176.213 42.8047 176.703 42.8455C179.618 43.0276 180.346 44.3033 180.529 49.0389C180.588 50.1768 180.768 51.4523 181.038 52.743C181.406 53.0812 181.724 53.2711 181.974 53.2713C183.665 53.2713 183.954 55.1687 182.972 58.6141C183.182 59.0394 183.399 59.4336 183.625 59.785C185.264 62.1525 186.357 64.8844 185.811 65.6131C185.264 66.5238 187.45 66.888 190.546 66.7058C194.917 66.3416 196.556 67.4347 198.924 71.6238C200.745 74.5379 203.478 77.4523 205.299 77.9988C208.76 79.0916 209.488 81.6413 206.392 82.7342C204.753 83.2806 204.753 84.5553 206.574 87.6512C207.849 90.0189 209.307 91.1126 210.035 90.2019C212.403 86.7414 217.32 86.1947 218.231 89.2908C219.506 92.9335 228.066 97.1227 233.166 96.7586C234.988 96.5765 239.541 96.576 243.184 96.576C249.012 96.9402 249.923 97.6695 251.016 102.769C251.926 107.14 251.38 108.962 248.466 110.966C246.463 112.422 245.188 114.243 245.734 115.154C246.28 116.065 243.913 118.98 240.27 121.712C232.62 127.54 231.71 132.457 238.448 131.182C244.277 129.907 244.277 130.454 237.174 137.011C230.435 143.021 228.431 143.75 228.431 139.743C228.431 138.286 227.156 137.011 225.517 137.011C222.967 137.011 222.967 136.465 224.788 134.279C226.61 131.911 226.427 131.547 223.149 131.547C221.145 131.547 219.324 130.636 219.324 129.725C219.324 128.633 218.413 127.904 217.502 127.904C214.77 127.905 208.214 139.196 209.306 141.929C209.67 143.203 208.942 144.297 207.667 144.297C205.846 144.297 205.3 145.936 205.846 149.761C206.392 152.674 206.028 155.224 205.117 155.224C201.11 155.224 201.839 163.785 205.846 167.246C211.128 171.617 211.31 173.438 206.574 173.438C204.571 173.438 202.932 174.167 202.932 175.26C202.932 176.17 204.935 177.081 207.485 177.081C210.763 177.081 212.038 176.171 212.038 173.621C212.038 171.071 213.86 169.614 217.866 168.703C221.145 168.157 224.605 166.335 225.698 165.06C226.609 163.603 230.617 161.053 234.442 159.231C240.27 156.499 242.82 156.135 248.649 157.774C256.663 159.96 264.677 157.774 275.24 150.489C283.072 145.207 286.715 145.025 287.99 149.578C288.537 151.581 290.541 153.586 292.544 153.95C294.547 154.496 295.822 155.771 295.276 156.681C294.729 157.41 295.822 160.871 297.825 164.332C301.468 170.342 300.558 173.256 294.911 173.438C293.818 173.439 288.719 176.353 283.255 179.813C277.973 183.274 272.326 186.188 270.687 186.188C266.68 186.371 262.308 189.831 260.305 194.385C258.848 198.027 258.666 198.027 258.119 194.02C257.391 190.56 256.844 190.377 253.201 192.381C250.834 193.474 247.555 195.842 245.916 197.663C243.366 200.213 240.816 200.576 233.713 199.666C226.246 198.573 224.788 198.938 224.788 201.487C224.788 204.948 222.056 205.13 214.224 202.398C208.395 200.395 202.021 192.745 203.66 190.012C204.206 189.102 203.66 187.463 202.203 186.37C200.2 184.731 199.47 184.731 198.56 186.553C198.014 187.827 197.832 186.916 198.014 184.367C198.196 181.817 199.106 179.267 200.017 178.721C200.927 177.992 199.835 176.899 197.65 176.171C195.282 175.442 190.364 176.353 185.628 178.356C178.889 181.088 177.615 182.181 178.707 185.277C179.254 187.28 179.8 190.012 179.8 191.105C179.8 193.473 181.621 194.202 185.992 193.656C187.085 193.474 188.725 194.385 189.453 195.477C190.182 196.934 190 197.116 188.725 196.387C187.45 195.659 186.539 196.023 186.539 197.116C186.539 198.209 185.811 198.573 184.718 198.027C183.807 197.481 182.897 198.209 182.897 199.848C182.897 201.488 181.986 202.216 180.893 201.487C179.436 200.759 179.436 201.488 180.893 204.22C183.078 208.227 181.803 208.955 176.703 206.952C175.064 206.406 174.336 205.13 174.882 204.22C175.428 203.309 174.882 202.581 173.789 202.581C172.514 202.581 171.967 201.487 172.514 200.03C173.06 198.573 171.604 195.659 169.054 193.292C166.686 191.106 165.047 188.738 165.593 188.374C166.139 187.827 164.864 186.188 162.861 184.913C160.311 183.092 159.4 180.906 159.947 177.992C160.493 174.714 159.4 172.528 155.94 169.796C153.208 167.792 150.112 165.424 149.019 164.513C147.926 163.603 145.557 162.511 143.554 162.146C141.732 161.782 138.455 158.503 136.451 154.86C133.537 149.578 132.08 148.486 130.441 150.125C128.801 151.764 128.255 151.581 128.255 149.214C128.255 145.936 126.797 145.389 123.519 147.575C120.605 149.579 120.969 155.589 124.43 159.778C126.251 161.782 128.983 165.607 130.622 168.339C132.444 171.435 135.358 173.438 137.726 173.438C139.911 173.438 141.005 173.985 140.458 174.714C139.73 175.442 142.644 177.628 146.833 179.813C151.022 181.817 154.847 184.731 155.211 186.188C155.94 188.374 155.575 188.556 153.572 186.553C148.107 181.453 141.369 185.823 146.651 191.105C148.108 192.562 147.743 194.202 144.647 197.48L140.822 201.67L141.915 196.752C143.008 192.563 142.097 190.741 136.451 185.277C132.626 181.817 128.619 178.902 127.708 178.902C124.612 178.902 111.864 165.79 111.863 162.511C111.863 158.686 108.219 155.225 104.576 155.407C103.119 155.407 98.9303 157.41 95.47 159.596C89.4596 163.602 88.7305 163.603 83.2668 161.054C78.3491 158.686 76.8915 158.686 74.5237 160.689C72.8846 161.964 71.9744 164.15 72.5207 165.425C73.6128 168.157 67.0559 173.438 62.6848 173.438C58.86 173.438 49.2072 183.455 50.6633 186.006C51.9383 188.009 45.7457 195.112 39.9172 198.209C37.9137 199.119 33.5428 199.484 30.0823 198.756C26.6219 198.027 21.8863 198.209 19.7004 198.937C15.5113 200.576 13.3255 199.12 11.1399 193.292C10.5935 191.653 7.86074 189.83 4.94652 189.284C0.393405 188.373 -0.152607 187.463 0.0295265 181.27C0.0295317 177.445 1.8507 171.435 4.03636 167.974C6.22199 164.514 8.04314 160.143 8.0432 158.321C8.0432 156.682 9.50021 155.225 11.3215 155.224C13.1429 155.224 13.6893 154.678 12.4143 153.767C9.31822 151.764 10.047 146.3 13.6897 145.207C17.1505 144.114 26.0753 145.753 28.9895 148.121C30.0824 148.849 34.4537 150.671 39.0071 152.31C48.4781 155.589 49.5709 154.86 53.3957 143.75C55.0349 138.468 55.217 136.1 53.76 134.643C52.6673 133.551 51.7563 131.183 51.7561 129.544C51.7561 127.722 49.7531 124.808 47.2034 122.804C41.7392 118.433 41.0103 113.151 46.2922 113.88C48.2957 114.244 50.4811 114.972 51.0276 115.701C53.7596 118.433 57.2208 116.794 57.2209 112.787C57.2209 109.873 57.7668 109.508 58.8596 111.33C61.0455 114.79 71.9738 112.058 73.0666 107.869C73.7952 104.955 78.7129 102.405 83.4485 102.587C84.3591 102.587 86.1803 100.219 87.8196 97.1228C89.641 93.298 92.3735 90.9305 96.927 89.8377C97.1901 89.7546 97.4532 89.676 97.7151 89.6014C97.9 89.3281 98.1204 89.0377 98.3791 88.7264C100.192 86.5446 100.192 85.9998 98.3791 85.9998C96.5659 85.9998 96.5657 85.4538 98.1975 83.4539C99.8295 81.4539 99.8298 80.5446 98.3791 79.6355C96.9286 78.7265 96.7472 77.8175 98.1975 76.3631C99.4668 75.0903 99.4675 73.6352 98.0168 71.9988C96.3848 69.9988 96.9289 68.5441 100.374 65.2713C102.731 63.0902 105.087 61.0908 105.632 61.0896C114.154 59.0897 116.512 57.9989 114.699 56.908C113.067 55.9989 113.611 54.7262 116.331 52.908C118.326 51.4535 121.227 46.908 122.678 42.908C125.579 34.5442 130.838 27.4524 133.196 28.907C135.009 30.1798 135.008 29.0893 132.832 23.4529C131.382 19.6348 131.563 19.0889 134.102 19.9978C135.915 20.7251 136.64 20.362 135.915 19.2713C135.19 17.9985 137.548 15.4523 141.356 13.0887C145.164 10.7251 148.79 7.99779 149.697 7.08866C150.422 5.81591 151.51 5.99799 152.78 7.8162C154.23 9.81602 154.412 9.0886 153.505 5.08866C152.78 0.906893 152.961 0.179509 154.411 2.36112C156.225 4.7248 156.587 4.72479 158.219 2.36112ZM100.41 180.174C103.531 176.817 106.468 179.241 106.468 185.396C106.468 188.94 106.101 191.925 105.734 191.925C105.366 191.925 103.714 192.484 102.063 193.044C99.6764 193.976 99.1252 192.857 99.1252 187.821C99.1253 184.277 99.6761 180.733 100.41 180.174ZM104.032 167.216C106.151 164.903 106.682 169.529 104.739 173.19C102.974 176.466 102.974 176.273 102.797 172.612C102.797 170.492 103.326 167.987 104.032 167.216ZM57.5608 47.0779C58.8337 45.8054 61.3799 45.0786 63.1985 45.6238C66.29 46.351 66.29 46.533 63.1985 49.9871C61.3802 51.9867 60.8351 53.4404 61.7444 53.2586C62.8357 52.8952 65.0177 52.8952 67.0178 53.0769C70.1094 53.2587 70.1089 53.6224 67.3811 57.6219C64.1077 62.7121 65.1993 72.1653 69.5637 77.2557C71.0185 79.0736 71.7457 82.3461 71.3821 85.073C70.6547 88.5271 71.2005 89.6179 73.7463 89.618C77.929 89.618 78.2929 94.7083 74.2922 96.3445C72.8374 96.8899 71.9283 98.3444 72.4739 99.617C73.7467 103.071 69.9272 103.98 60.6526 102.344C56.2887 101.435 51.9248 101.435 51.1965 102.344C50.2872 103.071 48.1042 103.253 46.1037 102.889C42.8307 101.981 42.6491 101.799 45.7405 99.4353C47.559 98.1628 50.6504 96.8905 52.469 96.8904C56.1061 96.8904 56.1059 96.8897 52.6506 94.3445C50.6503 92.8904 48.4678 92.1636 47.7405 92.5271C46.8314 93.0722 46.2864 92.7084 46.2864 91.7996C46.2866 90.8907 47.9229 89.6184 49.9231 89.073C52.2872 88.5276 53.1964 87.2544 52.469 85.2547C51.7419 83.2553 52.4693 82.3466 55.0149 82.3465C59.0157 82.3465 61.7439 77.6194 58.8342 75.9832C57.9251 75.256 57.5613 73.9839 58.1067 73.075C58.8341 72.166 57.925 71.4383 56.2883 71.4383C53.9242 71.4383 53.3781 70.3476 54.2873 66.7117C55.0147 63.8031 54.6512 60.8949 53.1965 59.0769C51.378 56.8955 51.3782 56.1682 53.1965 55.6228C54.2875 55.0775 55.3789 53.623 55.3791 52.1687C55.3791 50.7144 56.2879 48.3505 57.5608 47.0779ZM37.7297 67.3553C38.2737 65.729 40.2677 65.0066 43.3489 65.5486C48.4244 66.633 51.1439 71.3321 47.8811 73.5008C46.6122 74.2238 44.7997 77.4764 43.7121 80.7293C41.8995 86.3317 41.174 86.6931 33.5608 86.8738C27.0351 86.8738 25.4034 86.1511 24.8596 83.4402C24.3158 81.4523 24.8603 80.5484 26.1291 81.2713C28.123 82.5362 28.8477 81.4517 30.6604 72.9578C31.3854 69.7053 32.6542 68.4404 34.2854 68.9822C35.5543 69.5244 37.1859 68.8011 37.7297 67.3553ZM160.214 40.7254C155.137 37.4528 149.153 41.9987 149.153 49.0896C149.153 51.2714 148.064 54.1801 146.795 55.4529C138.454 63.9985 135.19 77.09 140.992 79.4539C142.155 79.891 143.199 81.1461 143.569 82.3758C146.304 81.2286 147.77 81.3131 149.178 82.3885L149.588 82.7146C152.14 84.6315 154.963 82.9163 156.779 79.3494C153.717 78.266 152.9 76.5721 152.236 70.908C151.692 64.9081 152.598 61.0898 157.131 52.7264C161.664 44.1807 162.209 41.9981 160.214 40.7254Z" fill="#615236"/>
</svg>
