<svg width="300" height="220" viewBox="0 0 300 220" fill="none" xmlns="http://www.w3.org/2000/svg">
<path d="M299.597 54.5775C298.984 53.9648 298.371 53.3522 297.451 52.7395C296.531 52.1268 295.611 51.5142 294.997 50.9015C294.077 49.3698 293.158 47.5318 292.544 46.0001L291.931 44.7747C291.011 42.6304 290.091 40.486 286.718 41.405C286.411 41.405 286.105 41.7113 286.105 42.0177C285.491 42.324 285.491 42.6303 284.878 42.324C284.571 42.0177 283.651 41.7113 282.731 42.324C281.198 43.243 281.198 49.9825 281.198 49.9825C280.892 51.2078 280.891 52.4332 280.891 53.6585C280.891 55.4965 280.891 57.0282 279.972 58.5599C278.132 63.155 273.839 64.074 269.239 65.2994C264.639 66.5247 260.039 67.7501 257.586 72.3451C256.666 73.8768 256.666 75.4085 256.359 76.9402C256.053 79.0846 256.053 80.9226 253.293 82.1479C252.373 82.4543 251.146 82.7606 249.92 82.7606C246.853 83.0669 243.174 83.3733 243.174 86.743C243.174 87.3557 243.48 87.9684 243.48 88.2747C243.787 88.581 243.787 88.8874 243.48 89.1937C243.174 89.8064 242.254 90.4191 241.64 91.0317C241.334 91.3381 241.027 91.6444 241.027 91.6444C239.494 93.1761 237.654 94.7078 235.814 96.2395C229.681 100.835 225.694 102.06 223.855 99.9155C223.548 99.6092 223.241 98.3839 224.775 95.3205C225.081 95.0141 225.388 94.4015 225.694 94.4015C226.614 93.4824 226.921 92.5634 226.614 90.4191L226.308 89.8064C225.388 86.1303 224.775 83.986 223.548 83.3733C221.401 82.1479 220.175 83.986 219.561 84.905C219.255 85.5177 218.948 86.1303 218.642 85.824C218.335 85.824 218.335 85.824 218.335 85.824C218.335 85.5177 218.642 84.905 218.642 84.5986C218.948 84.2923 218.948 83.6796 218.948 83.6796C219.868 81.5353 220.788 78.4719 219.255 76.0212C218.335 74.1832 215.882 73.2641 214.042 72.6515L213.428 72.3451C210.362 71.7324 210.055 71.7324 208.522 74.1831L208.215 74.7958C207.909 75.4085 207.602 75.7148 207.295 76.6339V76.9402C207.295 77.2465 207.295 77.5529 207.295 77.8592C207.295 78.1655 207.295 78.1655 207.295 78.4719C206.989 78.1655 206.376 77.8592 205.762 78.1655C204.229 79.0846 203.922 80.6163 203.616 82.1479C203.002 85.2113 203.002 88.581 203.922 91.0317L204.229 91.9507C205.149 94.4015 205.456 96.2395 204.842 98.6902C204.229 100.528 202.389 103.285 201.162 102.979C200.549 102.979 199.323 102.366 198.403 97.4648C197.483 93.1761 198.096 89.5001 199.016 85.2113C199.323 82.7606 199.936 80.6162 199.936 77.8592C199.936 77.5529 199.629 77.2465 199.629 77.2465C199.323 77.2465 199.016 77.2465 198.709 77.5529C198.096 78.1656 197.789 78.7782 197.176 79.3909C196.869 80.0036 196.563 80.6162 195.949 80.9226C196.563 78.7782 198.709 75.7148 200.243 74.1831C201.776 74.1831 203.002 73.2641 204.229 72.6515C205.149 72.0388 206.376 71.1198 207.295 71.1198C207.602 71.1198 207.909 71.4261 208.215 71.4261C208.829 71.7324 209.442 72.0388 210.055 72.0388C210.362 72.0388 210.975 71.4261 210.975 71.1198C211.589 71.1198 211.895 71.1198 212.202 70.8134C212.509 70.8134 212.815 70.8134 213.428 70.8134C213.735 70.8134 214.042 70.5071 214.042 70.5071C214.042 70.2008 214.042 69.8944 214.042 69.5881C212.509 67.4437 210.975 66.5247 208.829 65.912C208.522 65.6057 208.215 64.993 207.295 64.993C206.989 64.993 206.682 64.993 206.069 65.2994C205.149 65.2994 203.922 65.912 203.002 66.5247C202.389 66.831 201.776 67.1374 201.162 67.4437C199.323 68.0564 198.096 67.7501 196.869 66.831C196.256 66.5247 195.336 66.2184 194.416 65.912C194.11 65.6057 193.496 65.6057 193.19 65.6057C192.883 65.6057 192.576 65.6057 192.576 65.6057C192.576 65.2994 193.19 64.6867 193.496 64.074C193.803 63.7677 194.11 63.155 194.416 62.8486C194.416 62.5423 194.416 62.236 194.416 61.9296C194.416 61.0106 194.11 60.7043 194.11 61.0106C191.963 61.317 189.816 63.155 187.977 64.6867C186.75 65.6057 185.83 66.5247 184.91 66.831C182.457 68.0564 181.844 68.0564 181.537 67.7501C181.23 67.7501 181.23 67.1374 181.23 66.2184C181.23 65.912 181.23 65.6057 180.924 65.6057C180.617 65.2994 180.31 65.2994 180.004 65.6057C178.777 66.5247 177.55 67.1374 176.324 67.4437C177.55 64.6867 180.31 62.8486 183.07 61.317C183.99 60.7043 184.603 60.0916 185.523 59.7853C185.83 59.4789 185.83 59.4789 185.83 59.1726C185.83 58.8663 185.523 58.5599 185.523 58.5599C183.683 57.3346 181.844 57.6409 180.004 57.6409C179.084 57.6409 178.164 57.9472 176.937 57.6409C175.404 57.6409 174.177 56.7219 172.644 56.1092C171.111 55.4965 169.578 54.5775 168.044 54.5775C167.431 54.5775 166.818 54.5775 166.204 54.2712C165.284 54.2712 164.364 54.2712 163.138 53.6585C162.218 53.0458 162.218 53.0458 161.911 52.4332C161.605 52.1268 161.605 51.5141 160.991 51.2078C160.378 50.2888 159.765 49.6761 159.151 49.9825C158.538 49.9825 158.231 50.5951 158.231 50.9015C157.925 51.2078 157.618 51.8205 157.005 52.1268C156.392 52.4332 154.858 52.4332 153.632 52.1268C153.018 52.1268 152.405 52.1268 151.792 52.1268L145.352 51.8205C140.752 51.5141 136.459 51.2078 132.166 50.9015C124.193 50.5951 115.607 49.6761 107.021 48.7571C88.9285 46.3064 72.6761 43.243 57.0369 38.9543C51.2106 37.4226 45.6909 35.5846 40.1712 33.7466C37.718 32.8275 35.2648 32.2149 32.8116 31.6022C32.5049 31.6022 32.1983 31.2958 31.8916 31.2958C30.665 30.6832 30.0517 30.9895 29.1318 32.5212C28.8251 33.4402 28.8251 34.6656 28.8251 36.1973C28.8251 37.1163 28.8251 38.0353 28.8251 38.648C28.8251 39.2606 28.5185 39.567 28.5185 40.1796L28.2118 39.8733C27.9052 39.8733 27.9052 39.567 27.5985 39.567C27.9052 39.2606 28.2118 38.648 28.2118 38.0353C28.2118 37.1163 27.5985 36.5036 26.3719 35.5846L25.7586 34.9719C23.9187 33.4402 21.7722 31.9085 20.2389 32.2149C19.6256 32.2149 19.319 32.5212 19.0123 33.1339C18.7057 33.7465 18.7057 34.9719 18.7057 37.7289C18.7057 38.648 18.399 39.567 18.399 40.486C18.399 41.7113 18.399 42.9367 18.0924 44.162C18.0924 44.7747 17.7857 45.3874 17.7857 45.6937C17.4791 47.2254 17.4791 47.8381 18.399 48.7571C16.2525 49.9825 15.3325 52.1268 14.7192 54.2712C14.4126 54.8839 14.1059 55.8029 13.7993 56.4156C12.266 60.0916 10.4261 63.155 7.9729 67.4437C6.133 70.5071 5.5197 73.8768 5.21305 76.9402C4.59975 80.9226 3.98645 84.5986 1.2266 87.3557C1.2266 87.3557 0.91995 87.662 0.91995 87.9684V88.581C0.91995 88.8874 0.91995 88.8874 0.91995 88.8874C2.75985 91.6444 1.53325 95.0141 0 98.6902V98.9965C0.30665 101.754 0.91995 107.268 3.6798 109.106C1.53325 111.25 2.75985 113.394 3.6798 115.539C4.2931 116.458 4.59975 117.377 4.59975 118.296C4.59975 118.296 4.2931 118.602 4.2931 118.908C3.98645 119.215 3.6798 119.827 3.6798 120.134C3.6798 120.747 4.2931 121.972 4.59975 122.891C4.9064 123.81 5.21305 124.729 5.82635 125.954C6.43965 127.792 7.3596 129.63 7.3596 131.468C7.3596 131.775 7.3596 132.081 7.3596 132.694C7.3596 133.613 7.05295 134.838 7.66625 136.063C8.27955 136.676 9.1995 137.289 10.4261 137.595C11.0394 137.901 11.6527 138.208 11.9594 138.514C14.1059 140.046 15.9458 141.884 17.7857 143.722C19.0123 144.947 19.9323 145.866 21.1589 147.092C22.6921 148.317 23.3054 149.542 23.6121 151.074C23.6121 151.38 23.6121 151.687 23.6121 152.299C23.6121 153.218 23.6121 154.137 24.2254 155.056C25.7586 157.201 29.4384 157.507 32.5049 157.813C34.3448 157.813 35.8781 158.12 36.798 158.426C38.0246 158.732 39.2512 159.958 40.4778 160.877C40.7845 161.183 41.0911 161.489 41.3978 161.796C42.6244 162.715 44.1576 163.634 45.6909 164.553C46.6108 165.165 47.5308 165.778 48.4507 166.085C49.064 166.697 49.984 167.004 50.5973 167.616C54.2771 170.067 57.9569 172.518 62.25 173.437C63.1699 173.437 64.3965 173.743 65.3165 173.743C66.2364 174.049 67.463 174.049 68.383 174.356C68.9963 174.356 69.6096 174.662 70.2229 174.968C72.0628 175.581 74.516 176.194 76.0492 175.581C77.2758 175.275 77.8891 174.662 78.1958 174.049C78.5024 173.743 78.8091 173.437 79.1157 173.13C80.3423 172.824 83.4088 173.13 85.2487 173.437L86.1687 173.743C88.6219 174.049 90.7684 176.806 92.6083 178.951C93.2216 179.563 93.8349 180.482 94.4482 181.095C95.6748 182.627 96.2881 184.158 96.9014 185.996C97.8214 188.141 98.4347 189.979 100.275 191.817C105.488 196.412 108.554 195.187 110.087 193.655C112.847 190.592 114.38 189.673 117.754 191.511C121.433 193.349 122.967 195.799 124.5 199.475C125.113 201.007 126.34 202.232 127.26 203.764C128.793 205.908 130.02 207.746 130.633 210.197C131.553 215.099 135.846 216.937 139.832 218.468C140.446 218.775 140.752 218.775 141.366 219.081L141.979 219.387C142.592 219.694 143.206 220 143.819 220C144.126 220 144.126 220 144.432 219.694C145.046 219.387 145.352 218.775 145.352 217.856C145.659 216.63 145.046 215.099 144.432 213.567C143.819 212.342 143.512 210.81 143.819 210.197C143.819 209.891 144.126 209.891 144.126 209.585C144.432 209.278 144.739 208.665 145.046 208.053C145.352 207.44 145.046 206.827 145.046 206.521V206.215C145.046 205.908 145.352 205.908 145.659 205.908C145.965 205.908 146.579 205.908 146.885 205.296C147.192 204.989 147.499 204.377 147.499 203.764C147.805 203.458 148.419 203.151 148.419 203.151H148.725C149.032 203.151 149.339 202.845 149.645 202.845C150.259 202.539 151.178 202.539 151.178 201.62C151.178 201.313 151.178 201.007 151.178 200.701C151.792 200.394 152.712 200.394 153.325 200.394C154.858 200.088 156.698 199.782 158.231 198.25C159.458 197.331 160.071 195.799 160.378 194.574C160.685 193.961 160.685 193.655 160.991 193.042C162.831 193.961 165.284 193.655 167.738 193.042C169.271 192.736 170.804 192.43 172.031 192.736C176.017 193.655 178.164 193.655 179.084 193.042C179.084 193.042 179.39 192.736 179.39 192.43C180.617 192.43 180.924 193.042 182.15 193.961C182.457 194.268 182.763 194.574 183.07 194.88C184.91 196.412 185.83 196.412 187.977 196.106C188.59 196.106 188.896 195.799 189.203 195.799H189.51C189.51 195.799 189.51 195.799 189.816 196.106C190.123 196.412 190.43 196.718 191.043 196.718C191.35 196.718 191.35 196.718 191.656 196.412C191.963 196.106 192.27 195.493 192.27 194.88C192.27 194.574 192.27 194.574 192.576 194.268C192.883 194.268 193.19 194.574 193.496 194.88C195.643 196.412 197.176 197.025 198.096 196.412C198.403 196.106 198.709 195.493 198.403 194.88C198.096 193.961 197.176 193.655 196.256 193.349C195.949 193.349 195.336 193.042 195.336 192.736C195.336 192.736 195.643 192.123 195.949 191.817C196.256 191.204 196.869 190.592 196.869 189.673C196.869 189.366 196.869 189.366 196.563 189.06C196.256 189.06 196.256 188.754 195.949 188.754C194.11 189.06 192.576 189.06 191.35 188.447C191.656 188.447 191.656 188.447 192.27 188.447C192.576 188.447 193.19 188.754 193.803 188.754C195.949 188.754 197.176 188.447 198.709 187.835C199.323 187.528 200.243 187.528 200.856 187.222C202.389 186.915 203.922 186.609 205.149 185.077C205.762 185.996 206.376 186.915 207.909 186.915C208.522 186.915 209.442 186.303 210.362 185.996C210.669 185.69 211.282 185.384 211.589 185.384C211.589 183.546 212.815 183.546 213.735 183.546C215.882 183.546 217.108 183.546 218.948 184.771C219.561 185.077 219.868 185.69 220.481 185.996C221.401 186.609 222.015 187.528 223.548 187.528C225.081 187.528 226.308 186.609 227.228 185.69C227.841 185.077 228.454 184.465 229.374 184.465C230.601 184.158 231.521 184.771 232.747 186.303C233.054 186.609 233.361 186.915 233.974 187.222C234.587 187.528 234.894 187.835 235.507 188.141C237.041 189.06 238.574 189.979 238.88 192.123C239.187 193.042 239.187 193.961 239.187 194.88C239.187 196.106 239.187 197.637 239.8 198.863C239.8 199.169 240.107 199.169 240.414 199.475C240.72 199.475 241.027 199.475 241.027 199.169C241.027 198.863 241.334 198.863 241.334 198.556C241.334 198.863 241.334 199.169 241.334 199.475C241.334 200.394 241.027 201.62 241.64 203.151C242.254 204.07 243.174 204.683 243.787 205.296C244.4 205.908 245.013 206.215 245.627 206.827C245.933 207.44 246.547 207.746 246.853 208.359C247.773 209.585 248.693 210.81 249.92 211.729C250.226 212.035 250.533 212.342 251.146 212.648C251.453 212.954 251.76 213.261 252.066 213.567C252.066 213.567 252.066 213.873 252.373 214.18C252.68 215.099 252.986 216.018 253.6 216.324C255.133 216.937 256.359 216.63 256.973 216.324C258.813 215.099 260.039 211.116 260.039 204.989C260.039 201.926 258.199 199.169 256.359 196.718C255.44 195.493 254.826 194.574 254.213 193.349C254.52 193.042 254.52 193.042 254.52 192.736C254.213 190.592 252.68 188.447 251.453 186.609C250.84 185.69 250.226 185.077 249.92 184.465C248.08 181.708 247.16 179.563 246.853 177.419C245.933 172.211 248.08 166.391 252.066 162.715C253.906 161.183 254.826 159.039 256.053 157.201C257.279 154.75 258.813 152.606 260.959 151.074C263.106 149.849 264.026 148.623 264.946 147.092C265.252 146.785 265.559 146.173 265.866 145.866C266.786 144.947 267.706 144.335 268.625 143.722C269.852 143.109 270.772 142.19 271.692 140.965C271.999 140.658 271.999 140.352 271.692 140.046C271.385 139.433 270.772 139.739 270.159 139.739C270.465 139.127 270.465 138.514 270.159 137.595C271.385 137.289 272.612 137.289 273.532 135.144C273.839 133.919 273.839 133.306 273.532 132.694C272.305 131.468 271.692 131.468 270.772 131.468C271.999 130.243 272.612 128.405 270.772 126.567C269.852 125.648 268.932 125.342 268.012 125.035H267.706C268.319 124.116 267.706 123.197 267.092 121.972C266.786 121.666 266.479 121.053 266.479 120.747C266.786 120.747 266.786 120.44 267.092 120.134C267.092 119.521 266.786 119.215 266.479 118.602C266.479 118.296 266.172 118.296 265.866 117.989C266.172 117.683 266.172 117.377 265.866 117.07L265.559 116.151C265.559 115.845 265.252 115.539 265.252 115.539C265.559 115.845 265.866 116.458 266.172 116.764C266.479 117.07 266.786 117.377 266.786 117.377C267.399 117.989 267.706 118.296 268.012 119.215C268.012 119.827 268.012 120.44 268.012 121.359C268.012 121.972 268.012 122.891 268.319 123.504C268.319 123.81 268.625 124.116 268.932 124.116C269.239 124.116 269.545 123.81 269.852 123.504C270.159 122.891 270.159 122.278 270.465 121.972C271.385 119.521 272.305 116.458 272.305 114.313C272.305 112.475 271.385 111.25 270.465 110.025C270.159 109.718 269.852 109.412 269.852 109.106C270.772 109.718 271.692 110.331 272.919 109.412C274.145 108.493 275.372 102.979 275.372 101.754C275.372 101.447 275.372 101.141 275.372 100.835C275.372 100.222 275.372 99.6092 275.372 98.9965C275.065 98.3839 274.452 98.0775 273.839 97.7712L273.532 97.4648C273.225 96.5458 273.839 95.9331 275.065 94.7078L275.372 94.4015C277.212 92.5634 279.052 91.3381 280.891 90.4191C281.505 90.1127 282.118 89.8064 282.425 89.5C283.345 89.1937 284.571 88.581 285.185 87.662C285.491 87.3557 285.798 86.743 285.798 86.4367V86.1303C286.105 86.4367 286.718 86.743 287.024 86.4367C288.251 86.1303 291.624 84.5986 292.544 83.067C292.851 82.7606 292.851 82.4543 292.544 82.1479C292.238 81.8416 291.931 81.8416 291.624 81.8416C290.091 82.1479 288.864 82.1479 287.944 81.2289C286.718 80.0036 286.105 77.8592 286.411 74.4895C286.411 74.1832 286.411 73.8768 286.411 73.5705C286.718 71.7324 286.718 70.2008 287.944 68.9754C288.251 68.6691 288.558 68.3627 289.171 68.0564C289.784 67.7501 290.091 67.1374 290.398 66.5247C290.398 66.5247 290.398 66.5247 290.398 66.2184C290.398 65.912 290.704 65.6057 290.704 64.993C290.704 64.3803 291.011 63.7677 291.318 63.4613C291.624 62.8486 292.851 62.236 293.771 61.6233C296.224 60.3979 298.677 58.8663 298.984 56.7219C300.21 55.8029 300.21 55.1902 299.597 54.5775Z" fill="#615236"/>
</svg>
