<svg width="300" height="220" viewBox="0 0 300 220" fill="none" xmlns="http://www.w3.org/2000/svg">
<path fill-rule="evenodd" clip-rule="evenodd" d="M53.7373 7.88577C54.9198 6.63759 54.3946 6.63672 62.4092 8.34475C68.4527 9.59288 69.7665 10.119 74.9561 13.6006C78.175 15.7685 82.577 18.331 84.8105 19.3164C88.949 21.1558 90.3295 22.2724 109.577 38.6953L120.285 47.8272L129.548 48.7471C134.671 49.2069 139.861 49.5351 141.109 49.5352C142.358 49.4695 145.577 49.6003 148.271 49.9287L153.132 50.3887L154.445 53.6084L155.825 56.8272H160.227C164.496 56.8272 165.614 57.2868 165.745 59.126C165.876 60.4398 167.321 63.2642 168.044 63.5274C168.438 63.6588 168.964 64.9728 169.161 66.418C169.49 68.9143 169.752 69.2432 172.183 69.9658C174.088 70.4914 174.547 70.8852 173.956 71.2793C173.168 71.7391 173.234 72.1338 174.285 73.3819C176.124 75.5493 176.847 75.9436 177.372 75.0244C177.635 74.5646 178.096 74.9582 178.621 76.1406C179.081 77.126 180.591 78.5059 181.971 79.2285C184.073 80.2796 184.402 80.7399 184.073 82.0537C183.876 82.9733 184.074 83.9584 184.73 84.6153C186.11 85.9949 186.175 89.2794 184.796 88.7539C184.205 88.5569 183.811 88.7541 183.811 89.2139C183.811 90.5935 186.964 96.7686 188.409 98.2139C189.132 98.9365 189.723 100.119 189.723 100.842C189.723 102.484 191.825 106.491 194.124 109.25C195.701 111.089 196.226 111.418 197.803 111.024C198.788 110.762 199.577 110.301 199.577 109.973C199.577 109.645 198.854 109.711 198 110.039C195.57 110.959 194.322 109.513 193.271 104.455C192.416 100.316 192.548 96.44 193.599 95.586C193.796 95.3887 194.453 93.9439 194.979 92.3018C196.227 88.5573 198.46 88.0316 200.693 90.9219C202.007 92.5641 202.074 93.0899 201.482 94.8633C200.957 96.3086 200.957 97.4913 201.482 98.9365C202.533 102.024 202.336 104.192 200.825 106.688C199.84 108.331 199.709 109.053 200.3 109.382C200.825 109.776 200.694 110.171 199.643 110.762C197.803 111.944 197.869 112.666 199.84 112.666C200.956 112.666 201.548 113.126 201.811 114.374C202.205 115.951 213.11 131.061 213.898 131.061C214.104 131.062 220.933 131.981 229.008 133.031C237.154 134.148 244.183 134.936 244.643 134.739C245.168 134.542 246.417 135.922 247.928 138.353C249.898 141.571 250.227 142.688 249.898 144.527C249.439 146.826 242.674 167.711 242.212 168.111C242.081 168.243 234 171.199 224.212 174.615C205.227 181.316 199.577 182.63 181.643 184.601C173.299 185.52 172.248 185.784 167.124 188.346C162.197 190.842 161.146 191.696 157.664 196.229C155.496 199.053 153.592 202.009 153.395 202.798C153 204.243 149.912 206.608 148.401 206.608C148.007 206.608 147.087 205.688 146.431 204.571L145.183 202.535L138.022 202.338C133.949 202.207 129.679 201.681 127.971 201.09C125.54 200.302 123.569 200.236 116.869 200.695C109.249 201.221 108.657 201.155 106.949 199.907C105.438 198.856 104.913 198.725 103.73 199.382C102.942 199.776 102.35 200.63 102.481 201.222C102.547 201.813 102.416 202.666 102.219 203.061C101.562 204.112 101.431 207.396 102.022 208.71C102.285 209.433 102.219 209.893 101.759 209.893C101.365 209.893 101.036 210.353 101.036 210.878C101.036 211.404 100.576 211.863 100.051 211.863C99.5255 211.863 99.0655 212.127 99.0654 212.521C99.0654 212.849 98.6718 213.178 98.1465 213.178C97.1611 213.178 96.4385 211.798 96.4385 209.827C96.4385 209.17 96.1097 208.579 95.7812 208.579C95.3871 208.579 94.5991 207.528 94.0078 206.279C93.4167 205.031 92.6938 203.981 92.3652 203.98C92.1025 203.98 91.8398 203.258 91.8398 202.338C91.8397 201.353 91.1164 200.104 90.0654 199.185C89.1456 198.396 87.4379 196.951 86.3213 196.031C85.2045 195.046 83.4309 192.549 82.3799 190.447C81.329 188.28 80.2122 186.441 79.9492 186.243C79.6864 186.046 78.5035 183.55 77.3867 180.659C76.2699 177.769 75.0875 174.944 74.6934 174.418C74.3649 173.892 73.905 172.907 73.708 172.25C73.4452 171.659 72.8542 171.134 72.3945 171.134C71.869 171.134 71.2772 170.674 71.0801 170.148C70.6202 169.032 64.2479 164.564 63.0654 164.564C62.6711 164.564 61.6858 163.645 60.832 162.594C59.978 161.477 58.3361 159.375 57.0879 157.798C53.2121 152.937 52.8831 152.345 53.8027 150.966C54.3939 149.981 54.2631 149.126 53.1465 146.762C51.8983 144.2 51.8323 143.542 52.4893 140.783C53.2118 138.156 53.1455 137.302 52.1602 134.871C51.5033 133.295 50.2556 130.141 49.3359 127.776C48.4819 125.477 47.4962 123.375 47.2334 123.178C46.9049 122.981 46.182 121.798 45.5908 120.484C44.5397 118.251 38.8906 114.112 35.7373 113.323C34.949 113.126 33.8325 111.878 33.2412 110.564C32.5843 109.251 31.7953 108.002 31.4668 107.805C31.1387 107.607 31.0072 106.228 31.2041 104.718C31.5326 102.681 31.2701 101.63 30.1533 100.185C29.4307 99.1336 28.7735 97.6885 28.7734 96.9658C28.7734 96.2433 27.8543 95.1919 26.4092 94.3379C24.7015 93.3527 24.1751 92.6302 24.4375 91.7764C24.7003 90.9881 24.2408 90.0023 23.124 88.9512C22.2043 88.0972 21.0224 86.4547 20.5625 85.3379C20.1026 84.2868 18.5256 81.7247 17.0146 79.7539C15.5694 77.8488 14.3213 75.7465 14.3213 75.1553C14.3211 74.6295 13.4672 72.9871 12.3506 71.542C11.2995 70.1625 10.3799 68.7172 10.3799 68.3887C10.3792 67.9282 9.06501 66.1542 6.30664 62.8047C5.84666 62.2136 4.66366 62.0166 2.75879 62.2793L0 62.542L0.985352 59.8487C1.97069 57.3524 2.3654 55.5784 3.54785 48.418C4.07333 45.3307 3.87613 45.3307 9.72266 46.6446C16.6205 48.1555 17.9343 47.9582 21.1533 45.002C22.7297 43.5569 24.372 41.5209 24.832 40.4698C25.489 38.7617 26.0808 38.4983 30.2852 37.71C34.7515 36.8561 35.0144 36.7247 35.6055 34.6231C36.0653 33.0464 36.9197 32.0605 38.4307 31.3379C39.6129 30.7468 40.5982 29.9587 40.5986 29.5645C40.5986 29.1703 38.0368 25.9508 34.9492 22.4033C31.8616 18.9216 29.4304 15.9654 29.4961 15.834C29.6275 15.7026 34.9493 14.1258 41.2559 12.2207C47.5615 10.3159 53.2106 8.34593 53.7373 7.88577ZM86.5186 207.265C86.9126 207.265 87.1751 207.66 87.1094 208.054C86.9784 208.513 87.57 208.973 88.4238 209.105C89.2118 209.236 89.8688 209.564 89.8691 209.893C89.8691 210.878 86.2557 209.499 86.0586 208.382C85.9272 207.791 86.1244 207.265 86.5186 207.265ZM253.774 104.652C254.76 103.93 254.956 103.995 254.562 105.046C254.365 105.571 254.628 106.36 255.153 106.82C255.942 107.477 256.402 107.346 257.716 106.098C258.898 104.981 259.358 104.849 259.358 105.506C259.424 107.148 266.585 116.214 269.081 117.725C270.395 118.579 273.153 119.565 275.124 119.959C277.095 120.353 279.658 121.075 280.774 121.535C281.957 122.061 283.401 122.258 284.124 122.127C285.504 121.733 287.278 123.243 290.3 127.382C291.482 129.024 292.665 130.404 292.993 130.404C293.256 130.404 293.518 130.798 293.519 131.323C293.519 132.9 296.146 135.594 297.985 135.791C300.285 136.054 300.679 138.55 298.84 141.966C298.117 143.411 296.869 145.776 296.146 147.287C295.424 148.798 293.979 150.572 292.993 151.098C292.008 151.689 290.562 153.134 289.708 154.251C286.818 158.389 285.109 161.214 284.847 162.397C284.715 163.053 283.993 163.645 283.139 163.776C281.957 163.973 281.693 163.71 281.693 162.266C281.693 160.755 281.562 160.689 280.38 161.28C279.592 161.674 278.738 162.725 278.409 163.645C278.081 164.498 277.49 165.221 277.161 165.222C276.044 165.222 275.125 175.536 275.913 180.003C276.11 181.119 275.649 181.383 272.431 181.711C268.423 182.171 264.023 184.01 263.234 185.587C262.972 186.113 262.38 187.82 261.92 189.331C261.526 190.908 260.606 192.616 259.949 193.207C258.701 194.324 257.847 194.455 252.263 194.652C248.518 194.784 245.694 197.675 245.76 201.156C245.825 202.93 245.365 203.849 243.985 205.031C242.08 206.674 239.387 207.134 238.599 205.886C238.007 204.966 232.621 205.624 229.928 207.003C227.563 208.185 221.125 209.893 220.533 209.499C220.27 209.368 219.416 207.66 218.628 205.623C217.84 203.653 216.921 202.011 216.592 202.01C216.263 202.01 216 201.484 216 200.762C216 200.105 214.226 195.637 212.059 190.907C209.892 186.114 208.119 181.978 208.117 181.711C208.117 181.12 208.38 180.988 227.825 174.09C235.577 171.331 242.277 168.768 242.737 168.309C243.592 167.387 251.079 144.334 250.949 142.82C250.949 142.229 249.832 140.126 248.584 138.09C245.234 132.835 245.037 130.338 247.796 125.806C249.438 122.981 249.898 121.601 249.636 119.959C249.307 117.397 250.161 116.608 253.314 116.608C254.957 116.608 255.416 116.345 255.416 115.294C255.416 114.637 254.891 113.784 254.3 113.39C253.38 112.93 253.117 111.878 253.117 108.922C253.117 106.82 253.38 104.915 253.774 104.652ZM255.088 91.5791C255.811 89.4112 256.927 90.1338 256.533 92.5645C256.271 94.2066 256.468 95.1266 257.19 95.7178C257.782 96.1775 258.439 96.5061 258.636 96.4405C258.833 96.3098 259.029 98.0172 259.029 100.185C259.029 103.338 258.767 104.389 257.519 105.571L256.073 107.017V105.637C256.073 103.798 255.154 103.207 253.577 104.061C252.526 104.586 252.329 105.506 252.329 109.316C252.263 113.192 252.461 113.915 253.512 114.178C255.285 114.638 255.022 115.951 253.117 115.951C252.263 115.951 250.818 116.28 249.964 116.674C248.584 117.331 248.453 117.659 248.847 119.564C249.241 121.272 248.912 122.389 247.139 125.542C245.89 127.71 244.905 130.338 244.905 131.521C244.905 132.637 244.643 133.754 244.314 133.951C243.395 134.542 214.555 130.469 213.569 129.615C213.043 129.22 210.416 125.805 207.657 122.061C204.044 117.068 202.862 114.965 203.256 114.111C203.65 113.192 203.781 113.258 204.044 114.637C204.372 116.805 205.03 117.462 207.329 117.659C208.577 117.79 210.153 117.33 211.664 116.279C213.109 115.294 214.686 114.769 215.54 114.966C217.971 115.426 225.395 116.148 228.022 116.082C229.862 116.082 230.913 115.622 231.964 114.374C233.015 113.192 233.804 112.798 234.789 113.061C236.3 113.454 237.482 112.403 236.365 111.681C235.249 111.024 235.643 110.039 236.956 110.039C237.81 110.039 238.336 109.447 238.599 108.199C238.927 106.951 239.913 105.966 242.015 104.783C244.839 103.338 248.19 99.8561 248.19 98.4766C248.19 98.0824 249.635 96.7028 251.475 95.3233C253.248 94.0096 254.89 92.3019 255.088 91.5791ZM228.745 113.98C229.665 113.981 230.453 114.244 230.453 114.638C230.453 114.966 229.862 115.294 229.205 115.294C228.483 115.294 227.695 114.966 227.497 114.638C227.234 114.244 227.825 113.98 228.745 113.98ZM259.029 86.5205C259.423 85.6667 259.62 85.601 259.817 86.3233C260.014 86.7831 259.818 87.4406 259.424 87.6377C258.833 88.0319 258.833 88.6227 259.358 89.9365C259.884 91.316 259.752 92.0388 258.964 93.3526C258.373 94.2065 257.782 94.8634 257.716 94.7979C257.65 94.6662 257.387 93.0241 257.19 91.1192C256.862 88.4914 256.993 87.7031 257.65 87.7031C258.176 87.7029 258.767 87.1773 259.029 86.5205ZM190.905 87.1114C190.971 87.1114 190.774 87.7032 190.314 88.4258C189.789 89.4111 189.789 89.6739 190.314 89.4112C191.103 88.8858 191.299 90.265 190.643 91.9072C190.117 93.2211 189.066 92.6299 189.066 90.9219C189.066 90.2651 188.803 89.674 188.409 89.6739C187.424 89.6739 188.409 87.8344 189.592 87.5059C190.249 87.3088 190.774 87.177 190.905 87.1114ZM151.489 35.9366C153.723 35.0825 156.022 35.3456 158.519 36.5938C159.635 37.1192 160.818 37.5133 161.212 37.3164C161.606 37.185 162.46 37.71 163.117 38.4326C164.234 39.6808 164.234 39.8125 163.117 41.0606C162.46 41.7832 161.54 42.3741 161.08 42.3741C159.504 42.3743 156.877 43.8851 156.876 44.8047C156.876 45.396 157.336 45.5931 158.453 45.2647C159.832 44.9364 160.161 45.1996 160.817 47.3672C161.277 48.7468 162.198 50.7836 162.854 51.9004C165.088 55.4475 164.628 56.1699 160.292 56.1699H156.416L154.905 52.9512L153.395 49.666L148.599 49.2725C145.907 49.0098 143.739 48.6813 143.737 48.5498C143.737 48.4184 144.592 46.9732 145.577 45.3965C146.628 43.7543 148.007 41.1268 148.599 39.4844C149.387 37.4479 150.241 36.3307 151.489 35.9366Z" fill="#615236"/>
</svg>
