<svg width="133" height="131" viewBox="0 0 133 131" fill="none" xmlns="http://www.w3.org/2000/svg">
<path fill-rule="evenodd" clip-rule="evenodd" d="M65.9881 32.9844C69.1179 38.0473 73.4625 43.2496 76.1678 48.4883C82.9473 61.6272 74.4694 70.4356 71.076 82.2529C67.5142 94.6596 68.0818 109.625 68.5467 122.391C68.6492 125.177 68.1803 128.044 68.9197 130.749V130.752H63.0515C63.0626 129.892 63.4324 129.116 63.4617 128.248C63.901 115.285 64.4393 101.183 62.1551 88.3809C60.2002 77.424 52.9299 68.8466 53.2556 57.6006C53.5082 48.7998 61.3793 40.1085 65.9881 32.9844ZM123.885 38.4141C124.349 38.7216 124.412 39.1867 124.588 39.6553C126.612 45.0917 128.487 53.724 129.922 59.585C133.919 75.9233 135.259 91.1233 117.142 98.4561C106.768 102.655 94.4678 104.493 83.3943 105.917L83.3982 105.913C83.4791 105.295 84.825 105.105 85.3523 104.947C94.7163 102.205 111.64 99.5509 119.364 94.0596C127.443 88.312 125.672 71.1643 123.501 62.8467C123.01 60.9614 121.864 57.2459 121.037 55.5801C120.883 55.269 121.088 54.87 120.404 55.126C118.339 55.8984 112.866 60.6504 110.355 62.2393C101.068 68.1076 90.5031 71.3397 84.6424 81.3594C81.5015 86.7299 80.374 92.9577 75.1795 97.1934C74.8647 97.4498 74.3921 98.2218 73.9969 97.5742C76.6765 92.3099 77.5557 86.269 79.4666 80.8838C82.9809 70.9775 97.5651 65.2373 105.816 59.292C113.46 53.7825 119.949 47.0352 123.885 38.4141ZM11.8787 44.7324C20.5947 57.9738 33.4954 62.1986 45.1912 71.0615C54.493 78.1124 53.6764 87.9425 58.3621 97.7646L58.3553 97.7676C57.506 97.8737 56.9346 96.6294 56.4148 96.0107C52.0257 90.8123 51.3707 87.8099 48.3982 82.2344C41.388 69.0884 22.9751 64.8452 12.3299 55.1221C11.0669 54.8951 9.57339 59.8631 9.25858 60.9102C6.80958 69.0666 5.42543 84.5195 10.6931 91.6875C14.5407 96.9224 25.4714 98.7306 31.365 101.062L47.7937 105.521C39.1731 104.8 29.9961 103.051 21.6756 100.587C17.9636 99.485 13.53 98.0167 10.2244 96.0361C-9.42959 84.237 4.6455 55.2939 8.28787 38.4062L11.8787 44.7324ZM16.4842 65.5703C17.9228 68.7881 20.1885 71.8892 23.0144 74.0381C28.7251 78.3762 36.5739 78.2513 42.4969 83.4277C45.8718 86.3783 47.5083 91.1079 50.9197 94.0879C49.6092 94.1683 47.885 93.3965 46.743 92.7998C39.9598 89.2524 33.7075 81.5792 25.2918 81.085C24.4754 81.0374 24.79 81.0815 24.7058 81.6562C24.0031 86.4739 26.3867 91.2953 30.45 93.8213C35.432 96.9218 41.5085 96.7312 47.0213 97.9502C47.6326 98.0856 49.1775 98.2471 49.3533 98.9316C41.86 99.2721 32.5769 100.458 25.618 97.0645C14.8739 91.8221 16.1654 75.7066 15.7078 65.7637L16.4842 65.5703ZM116.256 65.9473C116.223 73.258 116.354 81.5939 113.81 88.5459C109.059 101.527 94.2329 99.4446 83.0056 98.9248V98.9316C82.8044 97.8265 83.2804 98.2983 83.866 98.0605C86.5712 96.9623 89.4157 97.3616 92.1502 96.9443C101.426 95.5312 108.001 91.3169 107.653 81.0811C99.0506 81.2349 93.2262 88.4029 86.2527 92.2578C84.7446 93.0925 82.8303 94.308 81.0476 94.0811C84.3605 90.4787 86.7801 85.7158 90.6385 82.6406C97.0666 77.5154 105.597 78.2804 111.377 72.1631C113.177 70.2559 114.111 67.5031 116.256 65.9473ZM65.7898 0C67.2687 1.89265 68.0484 4.37474 69.2381 6.46875C77.5332 21.0427 94.6613 30.4 92.7322 49.4219C91.9232 57.3805 84.9389 66.8877 81.366 74.2314C78.3906 80.3437 75.4915 86.9722 73.6062 93.498C72.9181 93.3832 73.1739 91.474 73.2068 90.9658C74.1073 77.9001 81.6146 66.6025 85.6414 54.7998C90.4662 40.6541 81.5706 30.3412 72.2469 20.5557C70.4422 18.6594 68.3852 16.3638 66.0535 15.1924C63.9047 15.5109 51.513 30.2243 49.8181 32.8564C44.1954 41.5949 43.9468 46.8007 47.3914 56.458C51.722 68.6012 59.094 80.1517 59.1306 93.5029C58.5746 93.4914 58.362 92.4006 58.1717 91.9395C55.2798 84.9802 52.8417 77.8776 49.4226 71.127C43.6498 59.7272 36.3547 52.7056 40.4656 38.7139C44.95 23.4554 61.4556 15.2146 65.7898 0ZM73.6092 93.499L73.6053 93.5029C73.6057 93.5014 73.6058 93.4996 73.6062 93.498C73.6072 93.4982 73.6082 93.4989 73.6092 93.499ZM65.9842 45.7871C62.8837 50.1618 59.0468 57.2085 59.1053 62.6631C59.1492 66.6352 62.298 76.7873 65.0545 79.6758C65.3252 79.9576 65.4278 80.3897 65.9803 80.335C67.1881 80.3313 69.9148 74.6357 70.3875 73.4268C72.496 68.0489 73.6198 60.9281 71.449 55.4844C71.0276 54.422 66.5403 45.7832 65.9803 45.7832L65.9842 45.7871Z" fill="#615236"/>
</svg>
