<svg width="200" height="70" viewBox="0 0 200 70" fill="none" xmlns="http://www.w3.org/2000/svg">
<path d="M75.3496 49.8791C74.9805 49.8205 75.1172 48.7991 75.1348 48.5276C75.6152 41.5575 79.6205 35.5306 81.7687 29.2342C84.3426 21.6878 79.5971 16.1863 74.6231 10.966C73.6604 9.95434 72.5629 8.72982 71.3189 8.10487C70.1726 8.27478 63.5621 16.1238 62.6579 17.528C59.6583 22.1898 59.5255 24.9669 61.3632 30.1189C63.6734 36.5969 67.6065 42.7585 67.626 49.8811C67.3292 49.8752 67.2159 49.2932 67.1144 49.0471C65.5716 45.3345 64.271 41.5457 62.447 37.9444C59.3673 31.8629 55.4753 28.117 57.6683 20.6528C60.0606 12.5127 68.8661 8.11658 71.1783 0C71.9672 1.00969 72.3832 2.33381 73.0179 3.45092C77.4431 11.2257 86.5806 16.2175 85.5514 26.3652C85.1198 30.611 81.3937 35.6829 79.4877 39.6006C77.9001 42.862 76.3534 46.3989 75.3477 49.8811L75.3496 49.8791Z" fill="#615236"/>
<path d="M72.8483 69.7526H69.7179C69.7237 69.2937 69.921 68.8796 69.9366 68.4168C70.1709 61.5013 70.458 53.9784 69.2394 47.1488C68.1966 41.3036 64.3182 36.7277 64.492 30.7282C64.6267 26.0332 68.8254 21.3968 71.2841 17.5963C72.9538 20.2973 75.2718 23.0725 76.715 25.8672C80.3317 32.8764 75.8089 37.5753 73.9985 43.8795C72.0984 50.4982 72.4011 58.482 72.6491 65.292C72.7038 66.7782 72.4538 68.3074 72.8483 69.7507V69.7526ZM71.2821 24.4259C69.628 26.7597 67.5814 30.5192 67.6127 33.4291C67.6361 35.5481 69.3156 40.9637 70.7861 42.5046C70.9306 42.655 70.9853 42.8855 71.2802 42.8562C71.9246 42.8542 73.3795 39.8154 73.6314 39.1709C74.7563 36.302 75.3558 32.5034 74.1977 29.5993C73.9732 29.033 71.5789 24.424 71.2802 24.424L71.2821 24.4259Z" fill="#615236"/>
<path d="M80.5716 56.5016C80.6146 56.1716 81.3332 56.07 81.6144 55.9861C86.6099 54.5233 95.638 53.1074 99.7585 50.1779C104.069 47.1117 103.123 37.964 101.965 33.5268C101.704 32.521 101.092 30.5387 100.651 29.6501C100.569 29.4841 100.678 29.2712 100.313 29.408C99.2117 29.82 96.2922 32.355 94.9525 33.2026C89.9981 36.3332 84.3621 38.0577 81.2356 43.403C79.56 46.268 78.9585 49.59 76.1874 51.8496C76.0195 51.9864 75.7676 52.3984 75.5566 52.0528C76.9861 49.2444 77.4548 46.022 78.4742 43.1491C80.349 37.8644 88.1292 34.8021 92.531 31.6304C96.6086 28.6912 100.071 25.0919 102.17 20.4926C102.418 20.6567 102.452 20.9047 102.545 21.1547C103.625 24.0548 104.625 28.66 105.391 31.7867C107.523 40.5028 108.238 48.6116 98.5731 52.5234C93.0387 54.7635 86.4771 55.7439 80.5696 56.5036L80.5716 56.5016Z" fill="#615236"/>
<path d="M67.2118 52.1563C66.7588 52.2129 66.4541 51.5489 66.1768 51.2188C63.8353 48.4456 63.4858 46.8442 61.9 43.8698C58.1603 36.8566 48.3374 34.5931 42.6584 29.406C41.9847 29.2849 41.1879 31.9351 41.02 32.4937C39.7135 36.8449 38.9753 45.0884 41.7855 48.9124C43.838 51.7051 49.6692 52.6699 52.8133 53.9139L61.5778 56.2927C56.9788 55.9079 52.083 54.9744 47.6441 53.6601C45.6639 53.0722 43.299 52.2891 41.5355 51.2325C31.0506 44.9381 38.5594 29.4978 40.5025 20.4887L42.4182 23.8634C47.068 30.9274 53.9499 33.1811 60.1893 37.9093C65.1516 41.6707 64.7161 46.9145 67.2157 52.1543L67.2118 52.1563Z" fill="#615236"/>
<path d="M44.8749 34.9798C45.6424 36.6965 46.8512 38.3506 48.3589 39.497C51.4053 41.8113 55.5923 41.7449 58.752 44.5064C60.5526 46.0805 61.4255 48.6038 63.2456 50.1935C62.5464 50.2365 61.6266 49.8244 61.0174 49.5061C57.3987 47.6136 54.0632 43.5202 49.5735 43.2565C49.1381 43.2311 49.306 43.2546 49.2611 43.5612C48.8861 46.1313 50.1575 48.7034 52.3251 50.051C54.983 51.7051 58.2248 51.6036 61.1658 52.2539C61.4919 52.3262 62.316 52.4121 62.4097 52.7773C58.4122 52.9589 53.4598 53.5917 49.7474 51.7813C44.0157 48.9846 44.705 40.3876 44.4609 35.0833L44.8749 34.9798Z" fill="#615236"/>
<path d="M80.3622 52.7773C80.2548 52.1875 80.5086 52.4394 80.8211 52.3125C82.2643 51.7266 83.7816 51.9395 85.2404 51.7168C90.189 50.963 93.6963 48.7151 93.5108 43.2546C88.9216 43.3366 85.8146 47.1605 82.0944 49.217C81.2898 49.6623 80.2684 50.3107 79.3174 50.1896C81.0847 48.2679 82.3756 45.7271 84.4339 44.0866C87.8631 41.3524 92.4133 41.7606 95.4969 38.4971C96.4577 37.4796 96.9557 36.011 98.1001 35.181C98.0825 39.0811 98.1528 43.528 96.7956 47.2367C94.2607 54.162 86.3516 53.0507 80.3622 52.7734V52.7773Z" fill="#615236"/>
<path d="M105.199 59.1948L107.672 59.228L111.253 65.6103V59.5034C111.858 58.896 112.952 59.3003 113.759 59.1929V69.7487L111.148 69.5436L107.707 63.5382V69.7487H105.201V59.1929L105.199 59.1948Z" fill="#615236"/>
<path d="M25.7816 59.1948C29.578 59.6381 30.5173 63.5324 27.3498 65.5049L29.4335 69.7487L26.7541 69.7155L25.018 66.0595C24.5318 65.9658 23.9127 65.9072 23.5905 66.3349V69.7507H21.085V59.5053L21.3974 59.1948C22.7957 59.312 24.4166 59.0347 25.7797 59.1948H25.7816ZM23.5905 64.1632C27.8751 64.9424 27.8751 60.4857 23.5905 61.265V64.1632Z" fill="#615236"/>
<path d="M158.317 59.1948C160.744 59.4917 162.105 61.3294 161.412 63.712C161.115 64.7315 160.32 64.8956 159.914 65.6767L161.971 69.7487L159.254 69.6491C158.202 68.4578 158.141 65.5713 156.126 66.0244V69.7507H153.62V59.1948C155.106 59.3257 156.868 59.0171 158.317 59.1948ZM156.126 64.1632C157.532 64.1729 159.149 64.4639 159.069 62.6067C158.992 60.847 157.45 61.2962 156.126 61.2669V64.1651V64.1632Z" fill="#615236"/>
<path d="M50.7233 63.5421H54.2717V59.5053C54.8771 58.8979 55.9707 59.3022 56.7772 59.1948V69.7507H54.2717V65.4033H50.7233V69.7507H48.2178V59.1948C49.0224 59.3022 50.116 58.8979 50.7233 59.5053V63.5421Z" fill="#615236"/>
<path d="M80.152 63.5421H83.7004V59.5053C84.3058 58.8979 85.3994 59.3022 86.2059 59.1948V69.7507H83.7004V65.4033H80.152V69.7507H77.6465V59.1948C78.4511 59.3022 79.5447 58.8979 80.152 59.5053V63.5421Z" fill="#615236"/>
<path d="M119.184 69.7526V59.1968H123.044C123.447 59.1968 124.763 59.7397 125.171 59.9858C127.878 61.6106 128.067 66.5224 125.868 68.6218C125.579 68.8972 124.187 69.7526 123.878 69.7526H119.182H119.184ZM121.687 67.8895C126.013 68.8132 126.001 60.3041 121.687 61.2669V67.8895Z" fill="#615236"/>
<path d="M35.5594 68.8523C32.9836 66.4736 33.6222 59.7787 37.6978 59.2143C45.4468 58.1402 44.816 71.3775 37.5631 69.8678C37.0495 69.7604 35.9422 69.2058 35.5594 68.8523ZM38.3599 61.097C35.497 61.4349 36.116 69.6393 39.5687 67.6942C41.2774 66.7313 41.2657 60.7552 38.3599 61.097Z" fill="#615236"/>
<path d="M175.954 69.7507L173.249 69.7429L172.847 68.0125L169.402 67.8758L168.836 69.7311L166.145 69.7507L169.935 59.23L172.304 59.3999L175.952 69.7507H175.954ZM172.196 65.8174C171.775 64.8897 171.65 63.8624 171.253 62.9211C171.171 62.7239 171.232 62.4465 170.947 62.509L169.9 65.8174H172.196Z" fill="#615236"/>
<path d="M96.8214 59.2241L100.608 69.7487L97.9248 69.7214L97.3585 67.8758L94.064 67.9168L93.318 69.6608L90.5918 69.7507L94.3667 59.5249C94.8061 58.9253 96.1165 59.2514 96.8234 59.2261L96.8214 59.2241ZM95.804 62.5071C95.2533 62.4465 95.474 62.5188 95.3841 62.8117C95.0814 63.8019 94.8744 64.8331 94.5542 65.8174H96.6398L95.804 62.5071Z" fill="#615236"/>
<path d="M8.14356 62.3001L5.77864 62.3098C5.17325 59.8569 1.30462 61.47 3.23796 62.925C4.65183 63.9894 7.48154 63.7511 8.05568 66.2197C9.2235 71.2427 -0.271346 71.1842 0.00596163 66.4423L2.50173 66.4521C2.12482 68.8269 6.52463 68.4246 5.53844 66.4404C4.98773 65.333 1.07613 65.3721 0.355525 62.8879C-0.952896 58.3863 8.02834 57.6227 8.14552 62.302L8.14356 62.3001Z" fill="#615236"/>
<path d="M148.821 62.9191L146.336 62.8996C146.292 60.7845 143.645 60.2924 142.88 62.3059C142.345 63.7121 142.142 67.7235 144.122 67.8875C145.657 68.0145 145.975 67.5887 146.444 66.2177L148.821 66.2314C148.266 70.9732 141.509 71.3541 140.286 66.7255C139.589 64.089 140.181 59.6752 143.517 59.2124C146.401 58.812 148.416 60.0014 148.821 62.9191Z" fill="#615236"/>
<path d="M187.435 59.1948V61.265H183.05V63.7491H187.017V65.6123H183.05V69.7526H180.547V59.1948H187.435Z" fill="#615236"/>
<path d="M196.825 61.265V69.7507H194.32V61.265H191.189V59.1948H199.643C200.106 59.4643 200.089 60.9466 199.761 61.1751L196.825 61.265Z" fill="#615236"/>
<path d="M64.9176 59.1948H62.4121V69.7507H64.9176V59.1948Z" fill="#615236"/>
<path d="M15.8669 69.7526H13.3613V59.1968C14.1659 59.3042 15.2595 58.8999 15.8669 59.5073V69.7526Z" fill="#615236"/>
<path d="M135.045 69.7526H132.539V59.1968C133.344 59.3042 134.437 58.8999 135.045 59.5073V69.7526Z" fill="#615236"/>
</svg>
