<svg width="280" height="100" viewBox="0 0 280 100" fill="none" xmlns="http://www.w3.org/2000/svg">
<path d="M108.899 68.4825C108.43 68.4079 108.604 67.108 108.626 66.7625C109.237 57.8913 114.335 50.2207 117.069 42.2071C120.345 32.6027 114.305 25.6007 107.975 18.9567C106.749 17.6692 105.353 16.1107 103.769 15.3153C102.31 15.5315 93.897 25.5212 92.7462 27.3084C88.9285 33.2415 88.7595 36.7761 91.0983 43.3331C94.0387 51.5779 99.0444 59.42 99.0692 68.485C98.6914 68.4775 98.5473 67.7368 98.418 67.4236C96.4545 62.6985 94.7992 57.8764 92.4778 53.2929C88.5582 45.5527 83.6047 40.7853 86.3958 31.2853C89.4405 20.9253 100.648 15.3302 103.59 5C104.594 6.28506 105.124 7.97031 105.932 9.39208C111.564 19.2873 123.193 25.6405 121.883 38.5558C121.334 43.9595 116.592 50.4146 114.166 55.4007C112.145 59.5517 110.177 64.0532 108.897 68.485L108.899 68.4825Z" fill="white"/>
<path d="M105.715 93.7762H101.731C101.739 93.1921 101.99 92.6652 102.01 92.0761C102.308 83.2745 102.673 73.7 101.122 65.0078C99.795 57.5683 94.8589 51.7446 95.0801 44.1088C95.2516 38.1333 100.595 32.2325 103.725 27.3955C105.85 30.8331 108.8 34.3652 110.637 37.9221C115.24 46.8429 109.483 52.8233 107.179 60.8469C104.761 69.2706 105.146 79.4318 105.462 88.0991C105.531 89.9906 105.213 91.9369 105.715 93.7737V93.7762ZM103.722 36.0877C101.617 39.058 99.0121 43.8428 99.0519 47.5464C99.0817 50.2432 101.219 57.1358 103.091 59.097C103.275 59.2884 103.344 59.5817 103.72 59.5444C104.54 59.5419 106.391 55.6743 106.712 54.8541C108.144 51.2027 108.907 46.3682 107.433 42.6721C107.147 41.9512 104.1 36.0852 103.72 36.0852L103.722 36.0877Z" fill="white"/>
<path d="M115.545 76.9117C115.6 76.4917 116.515 76.3624 116.873 76.2555C123.23 74.3938 134.721 72.5917 139.965 68.8633C145.451 64.9609 144.248 53.3183 142.774 47.671C142.441 46.3909 141.663 43.868 141.101 42.7371C140.997 42.5258 141.136 42.2549 140.671 42.4288C139.269 42.9533 135.553 46.1796 133.848 47.2584C127.543 51.2428 120.37 53.4376 116.39 60.2407C114.258 63.8871 113.492 68.1152 109.966 70.991C109.752 71.165 109.431 71.6895 109.163 71.2495C110.982 67.6752 111.579 63.5739 112.876 59.9176C115.262 53.1915 125.164 49.2941 130.766 45.2575C135.956 41.5166 140.363 36.9356 143.035 31.082C143.35 31.2908 143.393 31.6065 143.512 31.9247C144.886 35.6158 146.159 41.4769 147.133 45.4563C149.847 56.5496 150.757 66.8699 138.456 71.8485C131.413 74.6995 123.061 75.9473 115.543 76.9142L115.545 76.9117Z" fill="white"/>
<path d="M98.5424 71.3764C97.9658 71.4485 97.5781 70.6034 97.2251 70.1833C94.2451 66.6538 93.8002 64.6156 91.782 60.83C87.0223 51.9042 74.5204 49.0233 67.2926 42.4216C66.4352 42.2675 65.4211 45.6404 65.2073 46.3513C63.5446 51.8893 62.605 62.381 66.1816 67.2478C68.7939 70.8023 76.2155 72.0302 80.2171 73.6135L91.3719 76.641C85.5186 76.1513 79.2875 74.9632 73.638 73.2904C71.1178 72.5422 68.1079 71.5455 65.8635 70.2008C52.519 62.1896 62.0756 42.5384 64.5487 31.0723L66.9869 35.3674C72.9048 44.3579 81.6636 47.2262 89.6047 53.2439C95.9203 58.0312 95.366 64.7051 98.5474 71.374L98.5424 71.3764Z" fill="white"/>
<path d="M70.1135 49.5186C71.0903 51.7034 72.6288 53.8087 74.5475 55.2678C78.4249 58.2132 83.7537 58.1287 87.7752 61.6434C90.0668 63.6468 91.1778 66.8582 93.4943 68.8815C92.6045 68.9361 91.4338 68.4117 90.6583 68.0065C86.0528 65.598 81.8076 60.3881 76.0935 60.0526C75.5392 60.0203 75.753 60.0501 75.6958 60.4403C75.2186 63.7114 76.8367 66.9849 79.5955 68.7C82.9783 70.8053 87.1041 70.6761 90.8472 71.5038C91.2623 71.5958 92.3112 71.7051 92.4305 72.1699C87.3427 72.4011 81.0396 73.2064 76.3147 70.9023C69.0199 67.3429 69.8972 56.4012 69.5865 49.6503L70.1135 49.5186Z" fill="white"/>
<path d="M115.279 72.1678C115.143 71.4172 115.466 71.7378 115.864 71.5762C117.7 70.8306 119.632 71.1015 121.488 70.8181C127.786 69.8587 132.25 66.9977 132.014 60.048C126.173 60.1524 122.219 65.0192 117.484 67.6366C116.46 68.2033 115.16 69.0285 113.95 68.8744C116.199 66.4285 117.842 63.1948 120.462 61.1068C124.826 57.627 130.617 58.1465 134.542 53.993C135.765 52.698 136.399 50.8288 137.855 49.7725C137.833 54.7362 137.922 60.396 136.195 65.1161C132.969 73.9301 122.902 72.5158 115.279 72.1629V72.1678Z" fill="white"/>
<path d="M146.89 80.3355L150.036 80.3777L154.595 88.5007V80.7282C155.365 79.9552 156.757 80.4697 157.784 80.333V93.7677L154.46 93.5067L150.081 85.8635V93.7677H146.892V80.333L146.89 80.3355Z" fill="white"/>
<path d="M45.8131 80.3396C50.6449 80.9038 51.8404 85.8602 47.809 88.3706L50.4609 93.7718L47.0509 93.7296L44.8413 89.0765C44.2224 88.9572 43.4345 88.8827 43.0244 89.427V93.7743H39.8356V80.7348L40.2332 80.3396C42.0128 80.4887 44.0758 80.1358 45.8106 80.3396H45.8131ZM43.0244 86.663C48.4775 87.6548 48.4775 81.9826 43.0244 82.9744V86.663Z" fill="white"/>
<path d="M214.494 80.3349C217.584 80.7127 219.316 83.0517 218.434 86.0841C218.056 87.3816 217.044 87.5904 216.528 88.5847L219.145 93.7672L215.687 93.6404C214.348 92.1242 214.271 88.4504 211.706 89.0271V93.7696H208.517V80.3349C210.408 80.5014 212.65 80.1087 214.494 80.3349ZM211.706 86.6583C213.495 86.6707 215.553 87.0411 215.451 84.6773C215.354 82.4377 213.391 83.0094 211.706 82.9721V86.6608V86.6583Z" fill="white"/>
<path d="M77.5574 85.8679H82.0735V80.7302C82.844 79.9571 84.2358 80.4716 85.2623 80.3349V93.7697H82.0735V88.2367H77.5574V93.7697H74.3685V80.3349C75.3925 80.4716 76.7844 79.9571 77.5574 80.7302V85.8679Z" fill="white"/>
<path d="M115.011 85.8679H119.527V80.7302C120.298 79.9571 121.69 80.4716 122.716 80.3349V93.7697H119.527V88.2367H115.011V93.7697H111.822V80.3349C112.846 80.4716 114.238 79.9571 115.011 80.7302V85.8679Z" fill="white"/>
<path d="M164.688 93.7736V80.3389H169.602C170.114 80.3389 171.789 81.0299 172.309 81.3431C175.753 83.4111 175.994 89.6624 173.196 92.3344C172.828 92.6849 171.056 93.7736 170.663 93.7736H164.686H164.688ZM167.874 91.4023C173.38 92.578 173.365 81.7482 167.874 82.9736V91.4023Z" fill="white"/>
<path d="M58.2578 92.6287C54.9795 89.6013 55.7922 81.0806 60.9794 80.3622C70.8417 78.9951 70.0389 95.8426 60.8079 93.9212C60.1542 93.7845 58.7449 93.0786 58.2578 92.6287ZM61.8219 82.7584C58.1783 83.1884 58.9661 93.6304 63.3605 91.1548C65.5352 89.9294 65.5203 82.3234 61.8219 82.7584Z" fill="white"/>
<path d="M236.941 93.7738L233.498 93.7638L232.986 91.5616L228.602 91.3876L227.881 93.7489L224.456 93.7738L229.28 80.3838L232.295 80.6L236.938 93.7738H236.941ZM232.159 88.7677C231.622 87.5871 231.463 86.2797 230.958 85.0816C230.854 84.8305 230.931 84.4776 230.568 84.5571L229.236 88.7677H232.159Z" fill="white"/>
<path d="M136.227 80.3726L141.046 93.7675L137.631 93.7327L136.911 91.3838L132.718 91.436L131.768 93.6557L128.298 93.77L133.103 80.7554C133.662 79.9923 135.33 80.4074 136.23 80.3751L136.227 80.3726ZM134.932 84.5509C134.231 84.4738 134.512 84.5658 134.398 84.9386C134.013 86.1988 133.749 87.5112 133.341 88.764H135.996L134.932 84.5509Z" fill="white"/>
<path d="M23.3645 84.2888L20.3546 84.3013C19.5841 81.1793 14.6604 83.2325 17.121 85.0842C18.9205 86.4389 22.522 86.1357 23.2527 89.2775C24.739 95.6705 12.6547 95.5959 13.0076 89.5608L16.184 89.5733C15.7043 92.5958 21.3041 92.0837 20.0489 89.5583C19.348 88.149 14.3696 88.1987 13.4525 85.037C11.7872 79.3077 23.2179 78.3358 23.367 84.2913L23.3645 84.2888Z" fill="white"/>
<path d="M202.408 85.0753L199.246 85.0504C199.189 82.3585 195.821 81.7322 194.847 84.2948C194.166 86.0845 193.907 91.1899 196.427 91.3987C198.381 91.5603 198.786 91.0184 199.383 89.2735L202.408 89.2909C201.702 95.326 193.102 95.8107 191.546 89.9198C190.659 86.5642 191.412 80.9467 195.657 80.3576C199.328 79.8481 201.893 81.3618 202.408 85.0753Z" fill="white"/>
<path d="M251.553 80.3369V82.9717H245.973V86.1334H251.021V88.5046H245.973V93.7741H242.786V80.3369H251.553Z" fill="white"/>
<path d="M263.505 82.9717V93.7716H260.316V82.9717H256.332V80.3369H267.092C267.681 80.6799 267.659 82.5665 267.241 82.8573L263.505 82.9717Z" fill="white"/>
<path d="M95.6218 80.3369H92.433V93.7716H95.6218V80.3369Z" fill="white"/>
<path d="M33.1945 93.7775H30.0056V80.3427C31.0296 80.4795 32.4215 79.9649 33.1945 80.738V93.7775Z" fill="white"/>
<path d="M184.875 93.7775H181.686V80.3427C182.71 80.4795 184.102 79.9649 184.875 80.738V93.7775Z" fill="white"/>
</svg>
